<svg width="24" height="24" viewBox="0 0 24 24" fill="none" xmlns="http://www.w3.org/2000/svg">
<path d="M18.1 2.44998L21.18 5.00998C21.6 5.36998 21.66 5.99998 21.3 6.41998C20.94 6.84998 20.31 6.89998 19.89 6.54998L16.82 3.98998C16.4 3.62998 16.34 2.99998 16.69 2.57998C17.05 2.14998 17.68 2.09998 18.1 2.44998Z" fill="#444444"/>
<path d="M7.17001 3.98998L4.10001 6.54998C3.68001 6.89998 3.05001 6.84998 2.70001 6.41998C2.34001 5.99998 2.40001 5.36998 2.82001 5.00998L5.90001 2.44998C6.32001 2.09998 6.95001 2.14998 7.30001 2.57998C7.66001 2.99998 7.60001 3.62998 7.17001 3.98998Z" fill="#444444"/>
<path fill-rule="evenodd" clip-rule="evenodd" d="M3.00001 13C3.00001 8.02998 7.03001 3.99998 12 3.99998C16.97 3.99998 21 8.02998 21 13C21 17.97 16.97 22 12 22C7.03001 22 3.00001 17.97 3.00001 13ZM16.1849 15.6267C16.1303 15.4728 16.0231 15.3375 15.87 15.25L12.5 13.25V8.71996C12.5 8.31996 12.18 7.99996 11.78 7.99996H11.72C11.4246 7.99996 11.1729 8.17445 11.0614 8.42679C11.0408 8.47346 11.025 8.5228 11.0145 8.5742C11.005 8.62122 11 8.66996 11 8.71996V13.44C11 13.44 11 13.44 11 13.44C11 13.5712 11.0253 13.6997 11.0733 13.8184C11.1533 14.0164 11.2963 14.1875 11.49 14.3L15.14 16.49C15.48 16.69 15.92 16.59 16.12 16.25C16.2381 16.0531 16.255 15.8246 16.1849 15.6267Z" fill="#444444"/>
</svg>
