<svg width="24" height="24" viewBox="0 0 24 24" fill="none" xmlns="http://www.w3.org/2000/svg">
<path d="M9 16V13C9 12.4477 8.55228 12 8 12C7.44772 12 7 12.4477 7 13V16C7 16.5523 7.44772 17 8 17C8.55228 17 9 16.5523 9 16Z" fill="#444444"/>
<path d="M16 7C16.5523 7 17 7.44772 17 8V16C17 16.5523 16.5523 17 16 17C15.4477 17 15 16.5523 15 16V8C15 7.44772 15.4477 7 16 7Z" fill="#444444"/>
<path d="M13 16V15C13 14.4477 12.5523 14 12 14C11.4477 14 11 14.4477 11 15V16C11 16.5523 11.4477 17 12 17C12.5523 17 13 16.5523 13 16Z" fill="#444444"/>
<path d="M12 12C11.4477 12 11 11.5523 11 11C11 10.4477 11.4477 10 12 10C12.5523 10 13 10.4477 13 11C13 11.5523 12.5523 12 12 12Z" fill="#444444"/>
<path fill-rule="evenodd" clip-rule="evenodd" d="M19 3H5C3.9 3 3 3.9 3 5V19C3 20.1 3.9 21 5 21H19C20.1 21 21 20.1 21 19V5C21 3.9 20.1 3 19 3ZM5 19V5H19V19H5Z" fill="#444444"/>
</svg>
