<svg width="24" height="24" viewBox="0 0 24 24" fill="none" xmlns="http://www.w3.org/2000/svg">
<path fill-rule="evenodd" clip-rule="evenodd" d="M20.54 5.23L19.15 3.55C18.88 3.21 18.47 3 18 3H6C5.53 3 5.12 3.21 4.84 3.55L3.46 5.23C3.17 5.57 3 6.02 3 6.5V19C3 20.1 3.9 21 5 21H19C20.1 21 21 20.1 21 19V6.5C21 6.02 20.83 5.57 20.54 5.23ZM6.24 5H17.76L18.57 5.97H5.44L6.24 5ZM14.4652 13.3353H13.612V10.5559C13.612 10.2501 13.3705 10 13.0753 10H10.9287C10.6336 10 10.3921 10.2501 10.3921 10.5559V13.3353H9.5388C9.06118 13.3353 8.81969 13.9357 9.15778 14.2859L11.621 16.8374C11.8303 17.0542 12.1684 17.0542 12.3777 16.8374L14.8409 14.2859C15.179 13.9357 14.9429 13.3353 14.4652 13.3353Z" fill="#444444"/>
</svg>
