<svg width="24" height="24" viewBox="0 0 24 24" fill="none" xmlns="http://www.w3.org/2000/svg">
<path d="M13.612 13.3353H14.4652C14.9429 13.3353 15.179 13.9357 14.8409 14.2859L12.3777 16.8374C12.1684 17.0542 11.8303 17.0542 11.621 16.8374L9.15778 14.2859C8.81969 13.9357 9.06118 13.3353 9.5388 13.3353H10.3921V10.5559C10.3921 10.2501 10.6336 10 10.9287 10H13.0753C13.3705 10 13.612 10.2501 13.612 10.5559V13.3353Z" fill="#444444"/>
<path fill-rule="evenodd" clip-rule="evenodd" d="M19.15 3.55L20.54 5.23C20.83 5.57 21 6.02 21 6.5V19C21 20.1 20.1 21 19 21H5C3.9 21 3 20.1 3 19V6.5C3 6.02 3.17 5.57 3.46 5.23L4.84 3.55C5.12 3.21 5.53 3 6 3H18C18.47 3 18.88 3.21 19.15 3.55ZM17.76 5H6.24L5.44 5.97H18.57L17.76 5ZM5 8V19H19V8H5Z" fill="#444444"/>
</svg>
