<svg width="24" height="24" viewBox="0 0 24 24" fill="none" xmlns="http://www.w3.org/2000/svg">
<path d="M8.10997 11.7C7.71997 12.09 7.08997 12.09 6.69997 11.7C6.30997 11.31 6.30997 10.68 6.69997 10.29L11.29 5.70998C11.68 5.31998 12.31 5.31998 12.7 5.70998L17.29 10.3C17.68 10.69 17.68 11.32 17.29 11.71C16.9 12.1 16.27 12.1 15.88 11.71L12 7.82998L8.10997 11.7Z" fill="#444444"/>
<path d="M8.10997 18.2901C7.71997 18.6801 7.08997 18.6801 6.69997 18.2901C6.30997 17.9001 6.30997 17.2701 6.69997 16.8801L11.29 12.3001C11.68 11.9101 12.31 11.9101 12.7 12.3001L17.29 16.8901C17.68 17.2801 17.68 17.9101 17.29 18.3001C16.9 18.6901 16.27 18.6901 15.88 18.3001L12 14.4201L8.10997 18.2901Z" fill="#444444"/>
</svg>
