<svg width="24" height="24" viewBox="0 0 24 24" fill="none" xmlns="http://www.w3.org/2000/svg">
<path d="M12.29 8.12002C11.9 7.73002 11.9 7.10002 12.29 6.71002C12.68 6.32002 13.32 6.32002 13.7 6.70002L18.29 11.29C18.68 11.68 18.68 12.31 18.29 12.7L13.7 17.29C13.31 17.68 12.68 17.68 12.29 17.29C11.9 16.9 11.9 16.27 12.29 15.88L16.17 12L12.29 8.12002Z" fill="#444444"/>
<path d="M5.69997 8.11998C5.30997 7.72998 5.30997 7.09998 5.69997 6.70998C6.08997 6.31998 6.72997 6.31998 7.11997 6.70998L11.7 11.29C12.09 11.68 12.09 12.31 11.7 12.7L7.10997 17.29C6.71997 17.68 6.08997 17.68 5.69997 17.29C5.30997 16.9 5.30997 16.27 5.69997 15.88L9.57997 12L5.69997 8.11998Z" fill="#444444"/>
</svg>
