<svg width="24" height="24" viewBox="0 0 24 24" fill="none" xmlns="http://www.w3.org/2000/svg">
<path d="M15.88 5.70997C16.27 5.31997 16.9 5.31997 17.29 5.70997C17.68 6.09997 17.68 6.72997 17.29 7.10997L12.7 11.7C12.31 12.09 11.68 12.09 11.29 11.7L6.7 7.10997C6.31 6.71997 6.31 6.08997 6.7 5.69997C7.09 5.30997 7.72 5.30997 8.11 5.69997L12 9.57997L15.88 5.70997Z" fill="#444444"/>
<path d="M15.88 12.3001C16.27 11.9101 16.9 11.9101 17.29 12.3001C17.68 12.6901 17.68 13.3201 17.3 13.7001L12.71 18.2901C12.32 18.6801 11.69 18.6801 11.3 18.2901L6.71001 13.7001C6.32001 13.3101 6.32001 12.6801 6.71001 12.2901C7.10001 11.9001 7.73001 11.9001 8.12001 12.2901L12 16.1701L15.88 12.3001Z" fill="#444444"/>
</svg>
