<svg width="24" height="24" viewBox="0 0 24 24" fill="none" xmlns="http://www.w3.org/2000/svg">
<path d="M11.7 15.88C12.09 16.27 12.09 16.9 11.7 17.29C11.31 17.68 10.68 17.68 10.3 17.3L5.70998 12.71C5.31998 12.32 5.31998 11.69 5.70998 11.3L10.3 6.70998C10.69 6.31998 11.32 6.31998 11.71 6.70998C12.1 7.09998 12.1 7.72998 11.71 8.11998L7.82998 12L11.7 15.88Z" fill="#444444"/>
<path d="M18.29 15.88C18.68 16.27 18.68 16.9 18.29 17.29C17.9 17.68 17.27 17.68 16.89 17.3L12.3 12.71C11.91 12.32 11.91 11.69 12.3 11.3L16.89 6.70998C17.28 6.31998 17.91 6.31998 18.3 6.70998C18.69 7.09998 18.69 7.72998 18.3 8.11998L14.42 12L18.29 15.88Z" fill="#444444"/>
</svg>
