<svg width="24" height="24" viewBox="0 0 24 24" fill="none" xmlns="http://www.w3.org/2000/svg">
<path d="M16 9.5C16.55 9.5 17 9.05 17 8.5C17 7.95 16.55 7.5 16 7.5H8C7.45 7.5 7 7.95 7 8.5C7 9.05 7.45 9.5 8 9.5H16Z" fill="#444444"/>
<path d="M8 13.5C7.45 13.5 7 13.05 7 12.5C7 11.95 7.45 11.5 8 11.5H16C16.55 11.5 17 11.95 17 12.5C17 13.05 16.55 13.5 16 13.5H8Z" fill="#444444"/>
<path d="M8 17.5H13C13.55 17.5 14 17.05 14 16.5C14 15.95 13.55 15.5 13 15.5H8C7.45 15.5 7 15.95 7 16.5C7 17.05 7.45 17.5 8 17.5Z" fill="#444444"/>
<path fill-rule="evenodd" clip-rule="evenodd" d="M19 3H14.82C14.4 1.84 13.3 1 12 1C10.7 1 9.6 1.84 9.18 3H5C4.86 3 4.73 3.01 4.6 3.04C4.21 3.12 3.86 3.32 3.59 3.59C3.41 3.77 3.26 3.99 3.16 4.23C3.06 4.46 3 4.72 3 5V19C3 19.27 3.06 19.54 3.16 19.78C3.26 20.02 3.41 20.23 3.59 20.42C3.86 20.69 4.21 20.89 4.6 20.97C4.73 20.99 4.86 21 5 21H19C20.1 21 21 20.1 21 19V5C21 3.9 20.1 3 19 3ZM5 19V6H19V19H5ZM12 3C12.55 3 13 3.45 13 4C13 4.55 12.55 5 12 5C11.45 5 11 4.55 11 4C11 3.45 11.45 3 12 3Z" fill="#444444"/>
</svg>
