<svg width="24" height="24" viewBox="0 0 24 24" fill="none" xmlns="http://www.w3.org/2000/svg">
<path d="M17.75 16H7.17001C5.08001 16 3.22001 14.47 3.02001 12.39C2.79001 10.01 4.66001 8 7.00001 8H19.36C20.67 8 21.86 8.94 21.99 10.24C22.14 11.74 20.97 13 19.5 13H9.00001C8.45001 13 8.00001 12.55 8.00001 12C8.00001 11.45 8.45001 11 9.00001 11H17.75C18.16 11 18.5 10.66 18.5 10.25C18.5 9.84 18.16 9.5 17.75 9.5H9.14001C7.83001 9.5 6.64001 10.44 6.51001 11.74C6.36001 13.24 7.53001 14.5 9.00001 14.5H19.33C21.42 14.5 23.28 12.97 23.48 10.89C23.71 8.5 21.84 6.5 19.5 6.5H7.23001C4.36001 6.5 1.79001 8.6 1.52001 11.46C1.22001 14.75 3.78001 17.5 7.00001 17.5H17.75C18.16 17.5 18.5 17.16 18.5 16.75C18.5 16.34 18.16 16 17.75 16Z" fill="#444444"/>
</svg>
