<svg width="24" height="24" viewBox="0 0 24 24" fill="none" xmlns="http://www.w3.org/2000/svg">
<path d="M20.255 6.25246L19.465 8.00246C19.285 8.39246 18.725 8.39246 18.545 8.00246L17.755 6.24246L16.005 5.45246C15.615 5.27246 15.615 4.72246 16.005 4.54246L17.765 3.75246L18.555 2.00246C18.735 1.61246 19.285 1.61246 19.465 2.00246L20.255 3.76246L22.005 4.55246C22.395 4.73246 22.395 5.28246 22.005 5.46246L20.255 6.25246Z" fill="#444444"/>
<path fill-rule="evenodd" clip-rule="evenodd" d="M9.915 6.00246L11.505 9.50246L15.005 11.0925C15.785 11.4425 15.785 12.5525 15.005 12.9125L11.505 14.5025L9.915 18.0025C9.565 18.7825 8.455 18.7825 8.095 18.0025L6.505 14.5025L3.005 12.9125C2.225 12.5625 2.225 11.4525 3.005 11.0925L6.505 9.50246L8.095 6.00246C8.445 5.22246 9.565 5.22246 9.915 6.00246ZM10.08 13.0101L9.09 15.1901L8.1 13.0101L5.92 12.0201L8.1 11.0301L9.09 8.8501L10.08 11.0301L12.26 12.0201L10.08 13.0101Z" fill="#444444"/>
<path d="M17.755 17.7525L18.545 16.0025C18.725 15.6125 19.285 15.6125 19.465 16.0025L20.255 17.7625L22.005 18.5525C22.395 18.7325 22.395 19.2825 22.005 19.4625L20.245 20.2525L19.455 22.0025C19.275 22.3925 18.725 22.3925 18.545 22.0025L17.755 20.2425L16.005 19.4525C15.615 19.2725 15.615 18.7225 16.005 18.5425L17.755 17.7525Z" fill="#444444"/>
</svg>
