<svg width="24" height="24" viewBox="0 0 24 24" fill="none" xmlns="http://www.w3.org/2000/svg">
<path d="M9.44 4.94002L8.95 6.00002C8.78 6.39002 8.22 6.39002 8.05 6.00002L7.56 4.95002L6.5 4.46002C6.11 4.28002 6.11 3.73002 6.5 3.55002L7.56 3.06002L8.05 2.00002C8.22 1.61002 8.78 1.61002 8.95 2.00002L9.44 3.06002L10.5 3.54002C10.89 3.72002 10.89 4.27002 10.5 4.45002L9.44 4.94002Z" fill="#444444"/>
<path d="M20.94 4.94002L20.45 6.00002C20.28 6.39002 19.72 6.39002 19.55 6.00002L19.06 4.95002L18 4.46002C17.61 4.28002 17.61 3.73002 18 3.55002L19.05 3.06002L19.54 2.00002C19.72 1.61002 20.27 1.61002 20.45 2.00002L20.94 3.05002L22 3.54002C22.39 3.72002 22.39 4.27002 22 4.45002L20.94 4.94002Z" fill="#444444"/>
<path d="M19.55 13.5001L19.06 14.5601L18 15.0501C17.61 15.2301 17.61 15.7801 18 15.9601L19.06 16.4501L19.55 17.5101C19.73 17.9001 20.28 17.9001 20.46 17.5101L20.95 16.4501L22 15.9501C22.39 15.7701 22.39 15.2201 22 15.0401L20.94 14.5501L20.45 13.4901C20.28 13.1101 19.72 13.1101 19.55 13.5001Z" fill="#444444"/>
<path fill-rule="evenodd" clip-rule="evenodd" d="M14.88 6.29006L17.71 9.12006C18.1 9.51006 18.1 10.1501 17.7 10.5301L6.53 21.7001C6.14 22.0901 5.51 22.0901 5.12 21.7001L2.29 18.8701C1.9 18.4801 1.9 17.8501 2.29 17.4601L13.47 6.29006C13.86 5.90006 14.49 5.90006 14.88 6.29006ZM12.8 9.80006L14.21 11.2101L15.59 9.83006L14.18 8.42006L12.8 9.80006Z" fill="#444444"/>
</svg>
