<svg width="24" height="24" viewBox="0 0 24 24" fill="none" xmlns="http://www.w3.org/2000/svg">
<path d="M9.44 4.94002L8.95 6.00002C8.78 6.39002 8.22 6.39002 8.05 6.00002L7.56 4.95002L6.5 4.46002C6.11 4.28002 6.11 3.73002 6.5 3.55002L7.56 3.06002L8.05 2.00002C8.22 1.61002 8.78 1.61002 8.95 2.00002L9.44 3.06002L10.5 3.54002C10.89 3.72002 10.89 4.27002 10.5 4.45002L9.44 4.94002Z" fill="#444444"/>
<path d="M20.94 4.94002L20.45 6.00002C20.28 6.39002 19.72 6.39002 19.55 6.00002L19.06 4.95002L18 4.46002C17.61 4.28002 17.61 3.73002 18 3.55002L19.05 3.06002L19.54 2.00002C19.72 1.61002 20.27 1.61002 20.45 2.00002L20.94 3.05002L22 3.54002C22.39 3.72002 22.39 4.27002 22 4.45002L20.94 4.94002Z" fill="#444444"/>
<path d="M19.55 13.5001L19.06 14.5601L18 15.0501C17.61 15.2301 17.61 15.7801 18 15.9601L19.06 16.4501L19.55 17.5101C19.73 17.9001 20.28 17.9001 20.46 17.5101L20.95 16.4501L22 15.9501C22.39 15.7701 22.39 15.2201 22 15.0401L20.94 14.5501L20.45 13.4901C20.28 13.1101 19.72 13.1101 19.55 13.5001Z" fill="#444444"/>
<path fill-rule="evenodd" clip-rule="evenodd" d="M14.88 6.29L17.71 9.12C18.1 9.51 18.1 10.15 17.71 10.54L6.54 21.71C6.34 21.9 6.09 22 5.83 22C5.57 22 5.32 21.9 5.12 21.7L2.29 18.87C1.9 18.48 1.9 17.85 2.29 17.46L13.46 6.29C13.66 6.1 13.91 6 14.17 6C14.43 6 14.68 6.1 14.88 6.29ZM15.58 9.83L14.17 8.42L13 9.59L14.41 11L15.58 9.83ZM4.42 18.18L5.83 19.59L13 12.41L11.59 11L4.42 18.18Z" fill="#444444"/>
</svg>
