<svg width="24" height="24" viewBox="0 0 24 24" fill="none" xmlns="http://www.w3.org/2000/svg">
<path d="M11.48 17.88V13.74H8.82005C8.45005 13.74 8.20005 13.34 8.38005 13.01L12.06 5.84002C12.29 5.37002 13 5.54002 13 6.07002V10.26H15.54C15.91 10.26 16.15 10.65 15.99 10.98L12.43 18.1C12.19 18.58 11.48 18.41 11.48 17.88Z" fill="#444444"/>
<path fill-rule="evenodd" clip-rule="evenodd" d="M2.02002 12C2.02002 6.49002 6.49002 2.02002 12 2.02002C17.51 2.02002 21.98 6.49002 21.98 12C21.98 17.51 17.51 21.98 12 21.98C6.49002 21.98 2.02002 17.51 2.02002 12ZM4.02002 12C4.02002 16.4 7.60002 19.98 12 19.98C16.4 19.98 19.98 16.4 19.98 12C19.98 7.60002 16.4 4.02002 12 4.02002C7.60002 4.02002 4.02002 7.60002 4.02002 12Z" fill="#444444"/>
</svg>
