<svg width="24" height="24" viewBox="0 0 24 24" fill="none" xmlns="http://www.w3.org/2000/svg">
<path fill-rule="evenodd" clip-rule="evenodd" d="M6.00013 12C6.00013 8.69001 8.69013 6.00001 12.0001 6.00001C15.3101 6.00001 18.0001 8.69001 18.0001 12C18.0001 15.31 15.3101 18 12.0001 18C8.69013 18 6.00013 15.31 6.00013 12ZM8.00013 12C8.00013 14.21 9.79013 16 12.0001 16C14.2101 16 16.0001 14.21 16.0001 12C16.0001 9.79001 14.2101 8.00001 12.0001 8.00001C9.79013 8.00001 8.00013 9.79001 8.00013 12Z" fill="#444444"/>
<path fill-rule="evenodd" clip-rule="evenodd" d="M20.0001 6V8.69001L21.8959 10.5858C22.677 11.3668 22.677 12.6332 21.8959 13.4142L20.0001 15.31V18C20.0001 19.1046 19.1047 20 18.0001 20H15.3101L13.4143 21.8958C12.6333 22.6768 11.367 22.6768 10.5859 21.8958L8.69013 20H6.00013C4.89556 20 4.00013 19.1046 4.00013 18V15.31L2.10434 13.4142C1.32329 12.6332 1.32329 11.3668 2.10434 10.5858L4.00013 8.69001V6.00001C4.00013 4.89544 4.89556 4.00001 6.00013 4.00001H8.69013L10.5859 2.10422C11.367 1.32317 12.6333 1.32317 13.4143 2.10422L15.3101 4.00001H18.0001C19.1047 4.00001 20.0001 4.89543 20.0001 6ZM18.0001 16V14.48L19.0659 13.4142C19.847 12.6332 19.847 11.3668 19.0659 10.5858L18.0001 9.52001V8.00001C18.0001 6.89544 17.1047 6.00001 16.0001 6.00001H14.4801L13.4143 4.93422C12.6333 4.15317 11.367 4.15317 10.5859 4.93422L9.52013 6.00001H8.00013C6.89556 6.00001 6.00013 6.89543 6.00013 8V9.52001L4.93434 10.5858C4.15329 11.3668 4.15329 12.6332 4.93434 13.4142L6.00013 14.48V16C6.00013 17.1046 6.89556 18 8.00013 18H9.52013L10.5859 19.0658C11.367 19.8468 12.6333 19.8468 13.4143 19.0658L14.4801 18H16.0001C17.1047 18 18.0001 17.1046 18.0001 16Z" fill="#444444"/>
</svg>
