<svg width="24" height="24" viewBox="0 0 24 24" fill="none" xmlns="http://www.w3.org/2000/svg">
<path d="M20.0001 8.69001V6.00001C20.0001 4.90001 19.1001 4.00001 18.0001 4.00001H15.3101L13.4101 2.10001C12.6301 1.32001 11.3601 1.32001 10.5801 2.10001L8.69014 4.00001H6.00014C4.90014 4.00001 4.00014 4.90001 4.00014 6.00001V8.69001L2.10014 10.59C1.32014 11.37 1.32014 12.64 2.10014 13.42L4.00014 15.32V18C4.00014 19.1 4.90014 20 6.00014 20H8.69014L10.5901 21.9C11.3701 22.68 12.6401 22.68 13.4201 21.9L15.3201 20H18.0001C19.1001 20 20.0001 19.1 20.0001 18V15.31L21.9001 13.41C22.6801 12.63 22.6801 11.36 21.9001 10.58L20.0001 8.69001ZM12.0001 18C8.69014 18 6.00014 15.31 6.00014 12C6.00014 8.69001 8.69014 6.00001 12.0001 6.00001C15.3101 6.00001 18.0001 8.69001 18.0001 12C18.0001 15.31 15.3101 18 12.0001 18ZM12.0001 8.00001C9.79014 8.00001 8.00014 9.79001 8.00014 12C8.00014 14.21 9.79014 16 12.0001 16C14.2101 16 16.0001 14.21 16.0001 12C16.0001 9.79001 14.2101 8.00001 12.0001 8.00001Z" fill="#444444"/>
</svg>
