<svg width="24" height="24" viewBox="0 0 24 24" fill="none" xmlns="http://www.w3.org/2000/svg">
<path d="M21.4615 17.8317L13.5317 9.91167C14.4617 7.57167 13.9817 4.81167 12.0917 2.91167C9.79167 0.611671 6.21167 0.401671 3.66167 2.26167L7.50167 6.11167L6.08167 7.52167L2.25167 3.69167C0.39167 6.23167 0.601671 9.82167 2.90167 12.1117C4.76167 13.9717 7.47167 14.4617 9.79167 13.5917L17.7515 21.5417C18.8762 22.6664 20.4723 22.5042 21.4615 21.5417C22.2809 20.7443 22.699 19.0692 21.4615 17.8317ZM20.0542 20.1442C19.8102 20.3909 19.412 20.392 19.1667 20.1467L10.1517 11.1317C9.54167 11.5817 8.86167 11.8517 8.15167 11.9517C6.79167 12.1517 5.36167 11.7417 4.32167 10.7017C3.37167 9.76167 2.93167 8.50167 3.00167 7.26167L4.67746 8.93746C5.45851 9.71851 6.72484 9.71851 7.50588 8.93746L8.91746 7.52589C9.6985 6.74484 9.69851 5.47851 8.91746 4.69746L7.24167 3.02167C8.48167 2.95167 9.73167 3.39167 10.6817 4.33167C11.7617 5.41167 12.1717 6.90167 11.9217 8.29167C11.8017 9.00167 11.5017 9.66167 11.0417 10.2517L20.0517 19.2617C20.2951 19.5051 20.2962 19.8994 20.0542 20.1442Z" fill="#444444"/>
</svg>
