<svg width="24" height="24" viewBox="0 0 24 24" fill="none" xmlns="http://www.w3.org/2000/svg">
<path d="M14.62 6.52756C14.33 6.23756 13.85 6.23756 13.56 6.52756C13.26 6.81756 13.26 7.29756 13.56 7.59756L14.44 8.47756L13.56 9.35756C13.27 9.64756 13.27 10.1276 13.56 10.4176C13.85 10.7076 14.33 10.7076 14.62 10.4176L15.5 9.53756L16.38 10.4076C16.67 10.6976 17.15 10.6976 17.44 10.4076C17.73 10.1176 17.73 9.63756 17.44 9.34756L16.56 8.46756L17.44 7.58756C17.73 7.29756 17.73 6.81756 17.44 6.52756C17.15 6.23756 16.67 6.23756 16.38 6.52756L15.5 7.40756L14.62 6.52756Z" fill="#444444"/>
<path d="M10.5 7.71756H7C6.59 7.71756 6.25 8.05756 6.25 8.46756C6.25 8.87756 6.59 9.21756 7 9.21756H10.5C10.91 9.21756 11.25 8.87756 11.25 8.46756C11.25 8.05756 10.91 7.71756 10.5 7.71756Z" fill="#444444"/>
<path d="M10.75 15.9976H9.5V17.2476C9.5 17.6576 9.16 17.9976 8.75 17.9976C8.34 17.9976 8 17.6576 8 17.2476V15.9976H6.75C6.34 15.9976 6 15.6576 6 15.2476C6 14.8376 6.34 14.4976 6.75 14.4976H8V13.2476C8 12.8376 8.34 12.4976 8.75 12.4976C9.16 12.4976 9.5 12.8376 9.5 13.2476V14.4976H10.75C11.16 14.4976 11.5 14.8376 11.5 15.2476C11.5 15.6576 11.16 15.9976 10.75 15.9976Z" fill="#444444"/>
<path d="M17.25 17.2476C17.66 17.2476 18 16.9076 18 16.4976C18 16.0876 17.66 15.7476 17.25 15.7476H13.75C13.34 15.7476 13 16.0876 13 16.4976C13 16.9076 13.34 17.2476 13.75 17.2476H17.25Z" fill="#444444"/>
<path d="M17.25 14.7476H13.75C13.34 14.7476 13 14.4076 13 13.9976C13 13.5876 13.34 13.2476 13.75 13.2476H17.25C17.66 13.2476 18 13.5876 18 13.9976C18 14.4076 17.66 14.7476 17.25 14.7476Z" fill="#444444"/>
<path fill-rule="evenodd" clip-rule="evenodd" d="M5 3H19C20.1 3 21 3.9 21 5V19C21 20.1 20.1 21 19 21H5C3.9 21 3 20.1 3 19V5C3 3.9 3.9 3 5 3ZM5 19H19V5H5V19Z" fill="#444444"/>
</svg>
