<svg width="24" height="24" viewBox="0 0 24 24" fill="none" xmlns="http://www.w3.org/2000/svg">
<path d="M8.4 11H6V13.4H8.4V11Z" fill="#444444"/>
<path d="M13.2 11H10.8V13.4H13.2V11Z" fill="#444444"/>
<path d="M15.6 11H18V13.4H15.6V11Z" fill="#444444"/>
<path fill-rule="evenodd" clip-rule="evenodd" d="M19 3H20C21.1 3 22 3.9 22 5V21C22 22.1 21.1 23 20 23H4C2.9 23 2 22.1 2 21V5C2 3.9 2.9 3 4 3H5V2C5 1.44772 5.44772 1 6 1C6.55228 1 7 1.44772 7 2V3H17V2C17 1.44772 17.4477 1 18 1C18.5523 1 19 1.44772 19 2V3ZM19 21C19.5523 21 20 20.5523 20 20V9H4V20C4 20.5523 4.44772 21 5 21H19ZM4 7H20V5H4V7Z" fill="#444444"/>
</svg>
