<svg width="24" height="24" viewBox="0 0 24 24" fill="none" xmlns="http://www.w3.org/2000/svg">
<path fill-rule="evenodd" clip-rule="evenodd" d="M7 12C7 9.24 9.24 7 12 7C14.76 7 17 9.24 17 12C17 14.76 14.76 17 12 17C9.24 17 7 14.76 7 12ZM15 12C15 10.35 13.65 9 12 9C10.35 9 9 10.35 9 12C9 13.65 10.35 15 12 15C13.65 15 15 13.65 15 12Z" fill="#444444"/>
<path fill-rule="evenodd" clip-rule="evenodd" d="M16.83 4H20C21.1 4 22 4.9 22 6V18C22 19.1 21.1 20 20 20H4C2.9 20 2 19.1 2 18V6C2 4.9 2.9 4 4 4H7.17L8.4 2.65C8.78 2.24 9.32 2 9.88 2H14.12C14.68 2 15.22 2.24 15.59 2.65L16.83 4ZM15.95 6L14.12 4H9.88L8.05 6H4V18H20V6H15.95Z" fill="#444444"/>
</svg>
