<svg width="24" height="24" viewBox="0 0 24 24" fill="none" xmlns="http://www.w3.org/2000/svg">
<path d="M12 11.93L10.92 12.75C10.53 13.04 10 12.67 10.14 12.2L10.56 10.84L9.37 9.89C9 9.6 9.21 9 9.68 9H11.09L11.53 7.66C11.68 7.2 12.33 7.2 12.48 7.66L12.91 9H14.31C14.79 9 15 9.6 14.63 9.88L13.43 10.83L13.85 12.19C13.99 12.66 13.46 13.03 13.07 12.74L12 11.93Z" fill="#444444"/>
<path fill-rule="evenodd" clip-rule="evenodd" d="M7.32 22.56C6.67 22.77 6 22.29 6 21.61V15.28C4.76 13.87 4 12.03 4 10C4 5.58 7.58 2 12 2C16.42 2 20 5.58 20 10C20 12.03 19.24 13.87 18 15.28V21.61C18 22.3 17.33 22.78 16.68 22.56L12 21L7.32 22.56ZM18 10C18 6.69 15.31 4 12 4C8.69 4 6 6.69 6 10C6 13.31 8.69 16 12 16C15.31 16 18 13.31 18 10ZM12 19L8 20.02V16.92C9.18 17.6 10.54 18 12 18C13.46 18 14.82 17.6 16 16.92V20.02L12 19Z" fill="#444444"/>
</svg>
