<svg width="24" height="24" viewBox="0 0 24 24" fill="none" xmlns="http://www.w3.org/2000/svg">
<path d="M17 8H7C6.45 8 6 7.55 6 7C6 6.45 6.45 6 7 6H17C17.55 6 18 6.45 18 7C18 7.55 17.55 8 17 8Z" fill="#444444"/>
<path d="M17 9H7C6.45 9 6 9.45 6 10C6 10.55 6.45 11 7 11H17C17.55 11 18 10.55 18 10C18 9.45 17.55 9 17 9Z" fill="#444444"/>
<path d="M7 14H13C13.55 14 14 13.55 14 13C14 12.45 13.55 12 13 12H7C6.45 12 6 12.45 6 13C6 13.55 6.45 14 7 14Z" fill="#444444"/>
<path fill-rule="evenodd" clip-rule="evenodd" d="M20 2H4C2.9 2 2.01 2.9 2.01 4L2 22L6 18H20C21.1 18 22 17.1 22 16V4C22 2.9 21.1 2 20 2ZM20 4H4V17.17L5.17 16H20V4Z" fill="#444444"/>
</svg>
