<svg width="24" height="24" viewBox="0 0 24 24" fill="none" xmlns="http://www.w3.org/2000/svg">
<path d="M16.3 16.3C15.91 16.69 15.28 16.69 14.89 16.3L12 13.41L9.11 16.3C8.72 16.69 8.09 16.69 7.7 16.3C7.31 15.91 7.31 15.28 7.7 14.89L10.59 12L7.7 9.10997C7.31 8.71997 7.31 8.08997 7.7 7.69997C8.09 7.30997 8.72 7.30997 9.11 7.69997L12 10.59L14.89 7.69997C15.28 7.30997 15.91 7.30997 16.3 7.69997C16.69 8.08997 16.69 8.71997 16.3 9.10997L13.41 12L16.3 14.89C16.68 15.27 16.68 15.91 16.3 16.3Z" fill="#444444"/>
<path fill-rule="evenodd" clip-rule="evenodd" d="M2 12C2 6.47 6.47 2 12 2C17.53 2 22 6.47 22 12C22 17.53 17.53 22 12 22C6.47 22 2 17.53 2 12ZM4 12C4 16.41 7.59 20 12 20C16.41 20 20 16.41 20 12C20 7.59 16.41 4 12 4C7.59 4 4 7.59 4 12Z" fill="#444444"/>
</svg>
