<svg width="24" height="24" viewBox="0 0 24 24" fill="none" xmlns="http://www.w3.org/2000/svg">
<path d="M10.995 10L10.9949 12H9.19495C8.75495 12 8.53495 12.54 8.84495 12.85L11.6349 15.64C11.8349 15.84 12.1449 15.84 12.3449 15.64L15.1349 12.85C15.4549 12.54 15.2349 12 14.7849 12H12.9949L12.995 10C12.995 9.45004 12.5449 9.00004 11.995 9.00004C11.445 9.00004 10.995 9.45004 10.995 10Z" fill="#444444"/>
<path fill-rule="evenodd" clip-rule="evenodd" d="M19.35 10.04C18.67 6.59 15.64 4 12 4C9.11 4 6.6 5.64 5.35 8.04C2.34 8.36 0 10.91 0 14C0 17.31 2.69 20 6 20H19C21.76 20 24 17.76 24 15C24 12.36 21.95 10.22 19.35 10.04ZM19 18H6C3.79 18 2 16.21 2 14C2 11.95 3.53 10.24 5.56 10.03L6.63 9.92L7.13 8.97C8.08 7.14 9.94 6 12 6C14.62 6 16.88 7.86 17.39 10.43L17.69 11.93L19.22 12.04C20.78 12.14 22 13.45 22 15C22 16.65 20.65 18 19 18Z" fill="#444444"/>
</svg>
