<svg width="24" height="24" viewBox="0 0 24 24" fill="none" xmlns="http://www.w3.org/2000/svg">
<path d="M10.71 16.29C10.32 16.68 9.69 16.68 9.3 16.29L7.2 14.2C6.81 13.81 6.81 13.18 7.2 12.79C7.59 12.4 8.22 12.4 8.61 12.79L10 14.18L14.48 9.69997C14.87 9.30997 15.5 9.30997 15.89 9.69997C16.28 10.09 16.28 10.72 15.89 11.11L10.71 16.29Z" fill="#444444"/>
<path fill-rule="evenodd" clip-rule="evenodd" d="M12 4C15.64 4 18.67 6.59 19.35 10.04C21.95 10.22 24 12.36 24 15C24 17.76 21.76 20 19 20H6C2.69 20 0 17.31 0 14C0 10.91 2.34 8.36 5.35 8.04C6.6 5.64 9.11 4 12 4ZM6 18H19C20.65 18 22 16.65 22 15C22 13.45 20.78 12.14 19.22 12.04L17.69 11.93L17.39 10.43C16.88 7.86 14.62 6 12 6C9.94 6 8.08 7.14 7.13 8.97L6.63 9.92L5.56 10.03C3.53 10.24 2 11.95 2 14C2 16.21 3.79 18 6 18Z" fill="#444444"/>
</svg>
