<svg width="24" height="24" viewBox="0 0 24 24" fill="none" xmlns="http://www.w3.org/2000/svg">
<path fill-rule="evenodd" clip-rule="evenodd" d="M12 4C15.64 4 18.67 6.59 19.35 10.04C21.95 10.22 24 12.36 24 15C24 17.76 21.76 20 19 20H6C2.69 20 0 17.31 0 14C0 10.91 2.34 8.36 5.35 8.04C6.6 5.64 9.11 4 12 4ZM12.9915 12.79V14.79C12.9915 15.34 12.5415 15.79 11.9915 15.79C11.4415 15.79 10.9915 15.34 10.9915 14.79V12.79H9.20153C8.75153 12.79 8.53153 12.25 8.85153 11.94L11.6415 9.15C11.8415 8.95 12.1515 8.95 12.3515 9.15L15.1415 11.94C15.4515 12.25 15.2315 12.79 14.7915 12.79H12.9915Z" fill="#444444"/>
</svg>
