<svg width="24" height="24" viewBox="0 0 24 24" fill="none" xmlns="http://www.w3.org/2000/svg">
<path d="M8.11989 19.3C8.50989 19.69 9.13989 19.69 9.52989 19.3L11.9999 16.83L14.4699 19.3C14.8599 19.69 15.4899 19.69 15.8799 19.3C16.2699 18.91 16.2699 18.28 15.8799 17.89L12.7099 14.72C12.3199 14.33 11.6899 14.33 11.2999 14.72L8.12989 17.89C7.72989 18.27 7.72989 18.91 8.11989 19.3ZM15.8799 4.69997C15.4899 4.30997 14.8599 4.30997 14.4699 4.69997L11.9999 7.16997L9.52989 4.69997C9.13989 4.30997 8.50989 4.30997 8.11989 4.69997C7.72989 5.08997 7.72989 5.72997 8.11989 6.11997L11.2899 9.28997C11.6799 9.67997 12.3099 9.67997 12.6999 9.28997L15.8699 6.11997C16.2699 5.72997 16.2699 5.08997 15.8799 4.69997Z" fill="#444444"/>
</svg>
