<svg width="24" height="24" viewBox="0 0 24 24" fill="none" xmlns="http://www.w3.org/2000/svg">
<path d="M16.54 15.85L15.85 16.54C15.46 16.93 14.83 16.93 14.44 16.54L11.39 13.49C10.17 13.92 8.74997 13.66 7.76997 12.68C6.65997 11.57 6.46997 9.88999 7.17997 8.57999L9.52997 10.93L10.94 9.51999L8.57997 7.16999C9.89997 6.45999 11.57 6.64999 12.68 7.75999C13.66 8.73999 13.92 10.16 13.49 11.38L16.54 14.43C16.93 14.82 16.93 15.46 16.54 15.85Z" fill="#444444"/>
<path fill-rule="evenodd" clip-rule="evenodd" d="M2 12C2 6.48 6.48 2 12 2C17.52 2 22 6.48 22 12C22 17.52 17.52 22 12 22C6.48 22 2 17.52 2 12ZM4 12C4 16.41 7.59 20 12 20C16.41 20 20 16.41 20 12C20 7.59 16.41 4 12 4C7.59 4 4 7.59 4 12Z" fill="#444444"/>
</svg>
