<svg width="24" height="24" viewBox="0 0 24 24" fill="none" xmlns="http://www.w3.org/2000/svg">
<path fill-rule="evenodd" clip-rule="evenodd" d="M3 11.9536C3 7.31362 6.50999 3.49361 11.01 3.00362C11.9 2.93361 12.39 3.89361 11.94 4.56362C11.41 5.39361 11.1 6.39361 11.1 7.4536C11.1 10.4336 13.52 12.8536 16.5 12.8536C17.57 12.8536 18.57 12.5436 19.41 12.0036C20.17 11.5336 21.04 12.1636 20.95 12.9536C20.45 17.4536 16.63 20.9536 12 20.9536C7.03 20.9536 3 16.9236 3 11.9536ZM9.37 5.51C9.19 6.15002 9.10001 6.82 9.10001 7.49999C9.10001 11.58 12.42 14.9 16.5 14.9C17.18 14.9 17.85 14.81 18.49 14.63C17.45 17.19 14.93 19 12 19C8.14 19 5 15.86 5 12C5 9.07 6.81 6.55001 9.37 5.51Z" fill="#444444"/>
</svg>
