<svg width="24" height="24" viewBox="0 0 24 24" fill="none" xmlns="http://www.w3.org/2000/svg">
<path fill-rule="evenodd" clip-rule="evenodd" d="M10 13H4C3.45 13 3 12.55 3 12V4C3 3.45 3.45 3 4 3H10C10.55 3 11 3.45 11 4V12C11 12.55 10.55 13 10 13ZM9 5V11H5V5H9Z" fill="#444444"/>
<path fill-rule="evenodd" clip-rule="evenodd" d="M10 21H4C3.45 21 3 20.55 3 20V16C3 15.45 3.45 15 4 15H10C10.55 15 11 15.45 11 16V20C11 20.55 10.55 21 10 21ZM9 17V19H5V17H9Z" fill="#444444"/>
<path fill-rule="evenodd" clip-rule="evenodd" d="M20 21H14C13.45 21 13 20.55 13 20V12C13 11.45 13.45 11 14 11H20C20.55 11 21 11.45 21 12V20C21 20.55 20.55 21 20 21ZM19 19V13H15V19H19Z" fill="#444444"/>
<path fill-rule="evenodd" clip-rule="evenodd" d="M13 8V4C13 3.45 13.45 3 14 3H20C20.55 3 21 3.45 21 4V8C21 8.55 20.55 9 20 9H14C13.45 9 13 8.55 13 8ZM19 5V7H15V5H19Z" fill="#444444"/>
</svg>
