<svg width="24" height="24" viewBox="0 0 24 24" fill="none" xmlns="http://www.w3.org/2000/svg">
<path d="M9 14H15C15.55 14 16 13.55 16 13C16 12.45 15.55 12 15 12H9C8.45 12 8 12.45 8 13C8 13.55 8.45 14 9 14Z" fill="#444444"/>
<path d="M9 18H15C15.55 18 16 17.55 16 17C16 16.45 15.55 16 15 16H9C8.45 16 8 16.45 8 17C8 17.55 8.45 18 9 18Z" fill="#444444"/>
<path fill-rule="evenodd" clip-rule="evenodd" d="M6 2H14L20 8V20C20 21.1 19.1 22 18 22H5.99C4.89 22 4 21.1 4 20V4C4 2.9 4.9 2 6 2ZM6 20H18V9H14C13.45 9 13 8.55 13 8V4H6V20Z" fill="#444444"/>
</svg>
