<svg width="24" height="24" viewBox="0 0 24 24" fill="none" xmlns="http://www.w3.org/2000/svg">
<path d="M7.70754 10.79C7.31754 11.18 7.31754 11.81 7.70754 12.2L11.2975 15.79C11.6875 16.18 12.3175 16.18 12.7075 15.79L16.2975 12.2C16.6875 11.81 16.6875 11.18 16.2975 10.79C15.9075 10.4 15.2775 10.4 14.8875 10.79L12.9975 12.67V4C12.9975 3.45 12.5475 3 11.9975 3C11.4475 3 10.9975 3.45 10.9975 4L10.9975 12.67L9.11754 10.79C8.72754 10.4 8.08754 10.41 7.70754 10.79Z" fill="#444444"/>
<path d="M18 16C18 15.4477 18.4477 15 19 15C19.5523 15 20 15.4477 20 16V18C20 19.1 19.1 20 18 20H6C4.9 20 4 19.1 4 18V16C4 15.4477 4.44772 15 5 15C5.55228 15 6 15.4477 6 16V18H18V16Z" fill="#444444"/>
</svg>
