<svg width="24" height="24" viewBox="0 0 24 24" fill="none" xmlns="http://www.w3.org/2000/svg">
<path d="M11.9999 5.82997L14.4599 8.28997C14.8499 8.67997 15.4799 8.67997 15.8699 8.28997C16.2599 7.89997 16.2599 7.26997 15.8699 6.87997L12.6999 3.69997C12.3099 3.30997 11.6799 3.30997 11.2899 3.69997L8.11989 6.87997C7.72989 7.26997 7.72989 7.89997 8.11989 8.28997C8.50989 8.67997 9.13989 8.67997 9.52989 8.28997L11.9999 5.82997ZM11.9999 18.17L9.53989 15.71C9.14989 15.32 8.51989 15.32 8.12989 15.71C7.73989 16.1 7.73989 16.73 8.12989 17.12L11.2999 20.3C11.6899 20.69 12.3199 20.69 12.7099 20.3L15.8799 17.13C16.2699 16.74 16.2699 16.11 15.8799 15.72C15.4899 15.33 14.8599 15.33 14.4699 15.72L11.9999 18.17Z" fill="#444444"/>
</svg>
