<svg width="24" height="24" viewBox="0 0 24 24" fill="none" xmlns="http://www.w3.org/2000/svg">
<path d="M5 19H17V18.5C17 17.95 17.45 17.5 18 17.5C18.55 17.5 19 17.95 19 18.5V19C19 20.1 18.11 21 17 21H5C3.9 21 3 20.1 3 19V5C3 3.9 3.9 3 5 3H17C18.1 3 19 3.9 19 5V5.5C19 6.05 18.55 6.5 18 6.5C17.45 6.5 17 6.05 17 5.5V5H5V19Z" fill="#444444"/>
<path d="M15.71 16.29C16.1 16.68 16.73 16.68 17.12 16.29L20.71 12.7C21.1 12.31 21.1 11.68 20.71 11.29L17.12 7.69997C16.73 7.30997 16.1 7.30997 15.71 7.69997C15.32 8.08997 15.32 8.71997 15.71 9.10997L17.59 11H8.92004C8.37004 11 7.92004 11.45 7.92004 12C7.92004 12.55 8.37004 13 8.92004 13H17.59L15.71 14.88C15.32 15.27 15.33 15.91 15.71 16.29Z" fill="#444444"/>
</svg>
