<svg width="24" height="24" viewBox="0 0 24 24" fill="none" xmlns="http://www.w3.org/2000/svg">
<path fill-rule="evenodd" clip-rule="evenodd" d="M19 11H20.5C21.88 11 23 12.12 23 13.5C23 14.88 21.88 16 20.5 16H19V20C19 21.1 18.1 22 17 22H13.2V21.5C13.2 20.01 11.99 18.8 10.5 18.8C9.01 18.8 7.8 20.01 7.8 21.5V22H4C2.9 22 2 21.1 2 20V16.2H2.5C3.99 16.2 5.2 14.99 5.2 13.5C5.2 12.01 3.99 10.8 2.5 10.8H2.01V7C2.01 5.9 2.9 5 4 5H8V3.5C8 2.12 9.12 1 10.5 1C11.88 1 13 2.12 13 3.5V5H17C18.1 5 19 5.9 19 7V11ZM10.5 3C10.78 3 11 3.22 11 3.5V7H17V13H20.5C20.78 13 21 13.22 21 13.5C21 13.78 20.78 14 20.5 14H17V20H14.88C14.2 18.25 12.49 17 10.5 17C8.51 17 6.8 18.25 6.12 20H4V17.88C5.75 17.2 7 15.49 7 13.5C7 11.51 5.76 9.8 4.01 9.12L4 7H10V3.5C10 3.22 10.22 3 10.5 3Z" fill="#444444"/>
</svg>
