<svg width="24" height="24" viewBox="0 0 24 24" fill="none" xmlns="http://www.w3.org/2000/svg">
<path fill-rule="evenodd" clip-rule="evenodd" d="M9.08999 13.04C8.94999 13.06 8.80999 13.07 8.65999 13.07C6.91999 13.07 5.50999 11.66 5.50999 9.93C5.50999 9.22 5.75999 8.54 6.18999 8C5.76999 7.46 5.51999 6.78 5.51999 6.07C5.51999 4.34 6.92999 2.93 8.65999 2.93C8.79999 2.93 8.94999 2.94 9.08999 2.96C9.55999 1.81 10.69 1 12 1C13.31 1 14.44 1.81 14.91 2.96C15.05 2.94 15.19 2.93 15.34 2.93C17.07 2.93 18.48 4.34 18.48 6.07C18.48 6.78 18.24 7.46 17.81 8C18.23 8.54 18.48 9.22 18.48 9.93C18.48 11.66 17.07 13.07 15.34 13.07C15.2 13.07 15.05 13.06 14.91 13.04C14.44 14.19 13.31 15 12 15C10.69 15 9.55999 14.19 9.08999 13.04ZM10.86 11.9C10.88 12.51 11.38 13 12 13C12.62 13 13.12 12.51 13.14 11.9L13.03 10.81C12.71 10.93 12.36 11 12 11C11.64 11 11.3 10.93 10.98 10.81L10.86 11.9ZM14.7 10.87C14.88 11 15.1 11.07 15.34 11.07C15.97 11.07 16.49 10.56 16.49 9.92C16.49 9.48 16.23 9.08 15.83 8.89L14.95 8.47C14.83 9.21 14.44 9.85 13.89 10.3L14.7 10.87ZM15.34 4.93C15.11 4.93 14.89 5 14.69 5.13L13.87 5.69C14.43 6.14 14.82 6.78 14.94 7.52L15.82 7.1C16.23 6.9 16.48 6.51 16.48 6.07C16.48 5.44 15.97 4.93 15.34 4.93ZM13.14 4.1C13.12 3.49 12.62 3 12 3C11.38 3 10.88 3.49 10.86 4.1L10.98 5.19C11.3 5.07 11.64 5 12 5C12.36 5 12.71 5.07 13.03 5.19L13.14 4.1ZM9.29999 5.13C9.11999 5 8.89999 4.93 8.65999 4.93C8.02999 4.93 7.50999 5.44 7.50999 6.07C7.50999 6.51 7.76999 6.9 8.16999 7.1L9.04999 7.52C9.16999 6.78 9.55999 6.14 10.11 5.69L9.29999 5.13ZM9.04999 8.48L8.16999 8.9C7.76999 9.1 7.50999 9.49 7.51999 9.92C7.51999 10.55 8.02999 11.06 8.65999 11.06C8.88999 11.06 9.10999 10.99 9.30999 10.86L10.12 10.31C9.55999 9.86 9.16999 9.22 9.04999 8.48Z" fill="#444444"/>
<path fill-rule="evenodd" clip-rule="evenodd" d="M20.92 14.2C20.33 18.6 16.56 22 12 22C12 17.44 15.4 13.67 19.8 13.08C20.44 12.99 21.01 13.56 20.92 14.2ZM14.44 19.5599C15.15 17.6599 16.66 16.1399 18.56 15.4399C17.85 17.3399 16.34 18.8499 14.44 19.5599Z" fill="#444444"/>
<path fill-rule="evenodd" clip-rule="evenodd" d="M12 22C7.44 22 3.67 18.6 3.08 14.2C2.99 13.56 3.56 12.99 4.2 13.08C8.6 13.67 12 17.44 12 22ZM5.44 15.4399C7.34 16.1499 8.86 17.6599 9.56 19.5599C7.66 18.8499 6.15 17.3399 5.44 15.4399Z" fill="#444444"/>
</svg>
