<svg width="24" height="24" viewBox="0 0 24 24" fill="none" xmlns="http://www.w3.org/2000/svg">
<path d="M15 13C16.1 13 17 12.1 17 11C17 9.9 16.1 9 15 9C13.9 9 13 9.9 13 11C13 12.1 13.9 13 15 13Z" fill="#444444"/>
<path d="M11 16V17H19V16C19 14.67 16.33 14 15 14C13.67 14 11 14.67 11 16Z" fill="#444444"/>
<path fill-rule="evenodd" clip-rule="evenodd" d="M20 6H12L10.59 4.59C10.21 4.21 9.7 4 9.17 4H4C2.9 4 2.01 4.9 2.01 6L2 18C2 19.1 2.9 20 4 20H20C21.1 20 22 19.1 22 18V8C22 6.9 21.1 6 20 6ZM4 18H20V8H11.17L9.17 6H4V18Z" fill="#444444"/>
</svg>
