<svg width="24" height="24" viewBox="0 0 24 24" fill="none" xmlns="http://www.w3.org/2000/svg">
<path fill-rule="evenodd" clip-rule="evenodd" d="M8.16986 16.25C8.01986 16.7 7.58986 17 7.10986 17C6.32986 17 5.77986 16.21 6.05986 15.48L10.3099 4.17C10.5699 3.47 11.2499 3 11.9999 3C12.7499 3 13.4299 3.47 13.6899 4.17L17.9399 15.48C18.2199 16.21 17.6799 17 16.8899 17C16.4099 17 15.9799 16.7 15.8199 16.24L14.8299 13.42H9.17986L8.16986 16.25ZM14.0899 11.39L12.0599 5.6H11.9399L9.90986 11.39H14.0899Z" fill="#444444"/>
<path d="M4 20H20C21.1 20 22 20.9 22 22C22 23.1 21.1 24 20 24H4C2.9 24 2 23.1 2 22C2 20.9 2.9 20 4 20Z" fill="#444444"/>
</svg>
