<svg width="24" height="24" viewBox="0 0 24 24" fill="none" xmlns="http://www.w3.org/2000/svg">
<path fill-rule="evenodd" clip-rule="evenodd" d="M2 12C2 6.48 6.48 2 12 2C17.52 2 22 6.48 22 12C22 17.52 17.52 22 12 22C6.48 22 2 17.52 2 12ZM12.8607 16.0039H10.8607V18.0039H12.8607V16.0039ZM8.04069 8.83393C8.59069 7.01393 10.4107 5.74393 12.4707 6.04393C14.2107 6.30393 15.5807 7.77393 15.8207 9.51393C16.0488 11.1275 15.1564 11.906 14.2951 12.6575C14.1369 12.7955 13.9797 12.9327 13.8307 13.0739C13.7107 13.1839 13.6007 13.2939 13.5007 13.4139C13.4957 13.4189 13.4907 13.4264 13.4857 13.4339C13.4807 13.4414 13.4757 13.4489 13.4707 13.4539C13.3707 13.5739 13.2707 13.7039 13.1907 13.8439C13.1807 13.8589 13.1732 13.8739 13.1657 13.8889C13.1582 13.9039 13.1507 13.9189 13.1407 13.9339C12.9707 14.2339 12.8607 14.5839 12.8607 15.0039H10.8607C10.8607 14.5039 10.9407 14.0939 11.0607 13.7539C11.0651 13.7408 11.0675 13.7295 11.0698 13.7194C11.0726 13.7064 11.0751 13.6952 11.0807 13.6839C11.0857 13.6689 11.0932 13.6564 11.1007 13.6439C11.1082 13.6314 11.1157 13.6189 11.1207 13.6039C11.1907 13.4239 11.2807 13.2539 11.3707 13.1039C11.3757 13.0939 11.3807 13.0864 11.3857 13.0789C11.3907 13.0714 11.3957 13.0639 11.4007 13.0539C11.4007 13.0489 11.4032 13.0464 11.4057 13.0439C11.4082 13.0414 11.4107 13.0389 11.4107 13.0339C11.7513 12.521 12.208 12.1697 12.6352 11.8412C13.249 11.3691 13.8017 10.9441 13.8607 10.1539C13.9407 9.18393 13.2407 8.25393 12.2907 8.05393C11.2607 7.83393 10.3107 8.44393 9.99069 9.33393C9.85069 9.71393 9.52069 10.0039 9.11069 10.0039H8.91069C8.30069 10.0039 7.86069 9.41393 8.04069 8.83393Z" fill="#444444"/>
</svg>
