<svg width="24" height="24" viewBox="0 0 24 24" fill="none" xmlns="http://www.w3.org/2000/svg">
<path fill-rule="evenodd" clip-rule="evenodd" d="M10.0001 14V19C10.0001 19.55 9.5501 20 9.0001 20H6.0001C5.4501 20 5.0001 19.55 5.0001 19V12H3.3001C2.8401 12 2.6301 11.43 2.9701 11.13L11.3301 3.6C11.7101 3.26 12.2901 3.26 12.6701 3.6L21.0301 11.13C21.3801 11.43 21.1601 12 20.7001 12H19.0001V19C19.0001 19.55 18.5501 20 18.0001 20H15.0001C14.4501 20 14.0001 19.55 14.0001 19V14H10.0001ZM12.0001 5.5L17.5001 10.5V18.31H15.5001V12.31H8.50009V18.31H6.50009V10.5L12.0001 5.5Z" fill="#444444"/>
</svg>
