<svg width="24" height="24" viewBox="0 0 24 24" fill="none" xmlns="http://www.w3.org/2000/svg">
<path fill-rule="evenodd" clip-rule="evenodd" d="M19 3H5C3.9 3 3 3.9 3 5V19C3 20.1 3.9 21 5 21H19C20.1 21 21 20.1 21 19V5C21 3.9 20.1 3 19 3ZM11.1398 15.6805L9.36174 13.4548C9.18394 13.2349 8.86219 13.2437 8.70132 13.4724L6.59304 16.2874C6.3729 16.5777 6.56764 17 6.92326 17H17.0751C17.4223 17 17.6255 16.5865 17.4138 16.2962L14.4419 12.1793C14.2726 11.9417 13.9339 11.9417 13.7646 12.1705L11.1398 15.6805Z" fill="#444444"/>
</svg>
