<svg width="24" height="24" viewBox="0 0 24 24" fill="none" xmlns="http://www.w3.org/2000/svg">
<path d="M9.36174 13.4548L11.1398 15.6805L13.7646 12.1705C13.9339 11.9417 14.2726 11.9417 14.4419 12.1793L17.4138 16.2962C17.6255 16.5865 17.4223 17 17.0751 17H6.92326C6.56764 17 6.3729 16.5777 6.59304 16.2874L8.70132 13.4724C8.86219 13.2437 9.18394 13.2349 9.36174 13.4548Z" fill="#444444"/>
<path fill-rule="evenodd" clip-rule="evenodd" d="M5 3H19C20.1 3 21 3.9 21 5V19C21 20.1 20.1 21 19 21H5C3.9 21 3 20.1 3 19V5C3 3.9 3.9 3 5 3ZM19 19V5H5V19H19Z" fill="#444444"/>
</svg>
