<svg width="24" height="24" viewBox="0 0 24 24" fill="none" xmlns="http://www.w3.org/2000/svg">
<path d="M19 5L7 5L7 8C7 8.55 6.55 9 6 9C5.45 9 5 8.55 5 8L5 5C5 3.9 5.89 3 7 3L19 3C20.1 3 21 3.9 21 5L21 19C21 20.1 20.1 21 19 21L7 21C5.9 21 5 20.1 5 19L5 16C5 15.45 5.45 15 6 15C6.55 15 7 15.45 7 16L7 19L19 19L19 5Z" fill="#444444"/>
<path d="M10.79 16.29C11.18 16.68 11.81 16.68 12.2 16.29L15.79 12.7C16.18 12.31 16.18 11.68 15.79 11.29L12.2 7.69997C11.81 7.30997 11.18 7.30997 10.79 7.69997C10.4 8.08997 10.4 8.71997 10.79 9.10997L12.67 11H4C3.45 11 3 11.45 3 12C3 12.55 3.45 13 4 13H12.67L10.79 14.88C10.4 15.27 10.41 15.91 10.79 16.29Z" fill="#444444"/>
</svg>
