<svg width="24" height="24" viewBox="0 0 24 24" fill="none" xmlns="http://www.w3.org/2000/svg">
<path fill-rule="evenodd" clip-rule="evenodd" d="M19 3H5C3.9 3 3 3.9 3 5V12C3 13.1 3.9 14 5 14H19C20.1 14 21 13.1 21 12V5C21 3.9 20.1 3 19 3ZM19 9H15.86C15.39 9 15.02 9.33 14.89 9.78C14.53 11.04 13.35 12 12 12C10.65 12 9.47 11.04 9.11 9.78C8.98 9.33 8.61 9 8.14 9H5V6C5 5.45 5.45 5 6 5H18C18.55 5 19 5.45 19 6V9ZM7.6 10.5H5V12.1H8.8C8.2 11.676 7.81 11.124 7.6 10.5ZM15.2 12.1H19V10.5H16.4C16.19 11.124 15.8 11.676 15.2 12.1Z" fill="#444444"/>
<path fill-rule="evenodd" clip-rule="evenodd" d="M15.87 16H20C20.55 16 21 16.45 21 17V19C21 20.1 20.1 21 19 21H5C3.9 21 3 20.1 3 19V17C3 16.45 3.45 16 4 16H8.13C8.6 16 8.98 16.34 9.11 16.8C9.46 18.07 10.62 19 12 19C13.38 19 14.54 18.07 14.89 16.8C15.02 16.34 15.4 16 15.87 16ZM5 17.7H7.6C7.81 18.324 8.2 18.876 8.8 19.3H5V17.7ZM19 19.3H15.2C15.8 18.876 16.19 18.324 16.4 17.7H19V19.3Z" fill="#444444"/>
</svg>
