<svg width="24" height="24" viewBox="0 0 24 24" fill="none" xmlns="http://www.w3.org/2000/svg">
<path d="M13 8H11V10H13V8Z" fill="#444444"/>
<path d="M13 11H11V13H13V11Z" fill="#444444"/>
<path d="M10 8H8V10H10V8Z" fill="#444444"/>
<path d="M10 11H8V13H10V11Z" fill="#444444"/>
<path d="M7 11H5V13H7V11Z" fill="#444444"/>
<path d="M7 8H5V10H7V8Z" fill="#444444"/>
<path d="M16 11H14V13H16V11Z" fill="#444444"/>
<path d="M16 8H14V10H16V8Z" fill="#444444"/>
<path d="M19 11H17V13H19V11Z" fill="#444444"/>
<path d="M19 8H17V10H19V8Z" fill="#444444"/>
<path d="M15 16H9C8.45 16 8 15.55 8 15C8 14.45 8.45 14 9 14H15C15.55 14 16 14.45 16 15C16 15.55 15.55 16 15 16Z" fill="#444444"/>
<path fill-rule="evenodd" clip-rule="evenodd" d="M4 5H20C21.1 5 22 5.9 22 7V17C22 18.1 21.1 19 20 19H4C2.9 19 2 18.1 2 17L2.01 7C2.01 5.9 2.9 5 4 5ZM20 17V7H4V17H20Z" fill="#444444"/>
</svg>
