<svg width="24" height="24" viewBox="0 0 24 24" fill="none" xmlns="http://www.w3.org/2000/svg">
<path d="M11.3699 18.06C11.7299 18.34 12.2399 18.34 12.5999 18.06L18.7499 13.27C19.1099 12.99 19.6099 12.99 19.9699 13.27L19.9799 13.28C20.4899 13.68 20.4899 14.45 19.9799 14.85L13.2199 20.11C12.4899 20.67 11.4799 20.67 10.7599 20.11L3.99993 14.85C3.48993 14.45 3.48993 13.68 3.99993 13.28C4.35993 13 4.85993 13 5.21993 13.28L11.3699 18.06Z" fill="#444444"/>
<path fill-rule="evenodd" clip-rule="evenodd" d="M19.9899 9.78002L13.2299 15.04C12.5099 15.61 11.4899 15.61 10.7699 15.05L4.00993 9.79002C3.49993 9.39002 3.49993 8.61002 4.00993 8.21002L10.7699 2.94002C11.4999 2.38002 12.5099 2.38002 13.2299 2.94002L19.9899 8.20002C20.4999 8.60002 20.4999 9.38002 19.9899 9.78002ZM12 4.53001L17.74 9.00001L12 13.47L6.26001 9.00001L12 4.53001Z" fill="#444444"/>
</svg>
