<svg width="24" height="24" viewBox="0 0 24 24" fill="none" xmlns="http://www.w3.org/2000/svg">
<path fill-rule="evenodd" clip-rule="evenodd" d="M10.6001 3.14C11.0701 3.04 11.5401 3 12.0001 3C15.8701 3 19.0001 6.13 19.0001 10C19.0001 12.08 18.0901 13.95 16.6401 15.23C16.2201 15.6 16.0001 16.14 16.0001 16.69V19C16.0001 20.1 15.1001 21 14.0001 21H13.7201C13.3801 21.6 12.7401 22 12.0001 22C11.2601 22 10.6301 21.6 10.2801 21H10.0001C8.90007 21 8.00007 20.1 8.00007 19V16.69C8.00007 16.13 7.77007 15.6 7.34007 15.22C5.60007 13.67 4.64007 11.27 5.12007 8.66C5.64007 5.9 7.84007 3.67 10.6001 3.14ZM11.5001 11.41V14H12.5001V11.42L14.3301 9.59L13.6201 8.88L12.0001 10.5L10.3801 8.88L9.67007 9.59L11.5001 11.41ZM10.0001 16.5C10.0001 16.78 10.2201 17 10.5001 17H13.5001C13.7801 17 14.0001 16.78 14.0001 16.5C14.0001 16.22 13.7801 16 13.5001 16H10.5001C10.2201 16 10.0001 16.22 10.0001 16.5ZM13.5 19H10.5C10.22 19 10 18.78 10 18.5C10 18.22 10.22 18 10.5 18H13.5C13.78 18 14 18.22 14 18.5C14 18.78 13.78 19 13.5 19Z" fill="#444444"/>
</svg>
