<svg width="24" height="24" viewBox="0 0 24 24" fill="none" xmlns="http://www.w3.org/2000/svg">
<path d="M8.99995 11H15C15.55 11 16 11.45 16 12C16 12.55 15.55 13 15 13H8.99995C8.44995 13 7.99995 12.55 7.99995 12C7.99995 11.45 8.44995 11 8.99995 11ZM20.93 12C21.55 12 22 11.41 21.86 10.81C21.32 8.62 19.35 7 17 7H13.95C13.43 7 13 7.43 13 7.95C13 8.47 13.43 8.9 13.95 8.9H17C18.45 8.9 19.67 9.9 20.01 11.24C20.12 11.68 20.48 12 20.93 12ZM3.95995 11.38C4.23995 9.91 5.61995 8.9 7.11995 8.9H10.05C10.57 8.9 11 8.47 11 7.95C11 7.43 10.57 7 10.05 7H7.21995C4.60995 7 2.27995 8.91 2.02995 11.51C1.73995 14.49 4.07995 17 6.99995 17H10.05C10.57 17 11 16.57 11 16.05C11 15.53 10.57 15.1 10.05 15.1H6.99995C5.08995 15.1 3.57995 13.36 3.95995 11.38ZM18 12C17.45 12 17 12.45 17 13V15H15C14.45 15 14 15.45 14 16C14 16.55 14.45 17 15 17H17V19C17 19.55 17.45 20 18 20C18.55 20 19 19.55 19 19V17H21C21.55 17 22 16.55 22 16C22 15.45 21.55 15 21 15H19V13C19 12.45 18.55 12 18 12Z" fill="#444444"/>
</svg>
