<svg width="24" height="24" viewBox="0 0 24 24" fill="none" xmlns="http://www.w3.org/2000/svg">
<path fill-rule="evenodd" clip-rule="evenodd" d="M4 3H20C20.55 3 21 3.45 21 4V20C21 20.55 20.55 21 20 21H4C3.45 21 3 20.55 3 20V4C3 3.45 3.45 3 4 3ZM7 7H9V9H7V7ZM12 9H16C16.55 9 17 8.55 17 8C17 7.45 16.55 7 16 7H12C11.45 7 11 7.45 11 8C11 8.55 11.45 9 12 9ZM12 13H16C16.55 13 17 12.55 17 12C17 11.45 16.55 11 16 11H12C11.45 11 11 11.45 11 12C11 12.55 11.45 13 12 13ZM16 17H12C11.45 17 11 16.55 11 16C11 15.45 11.45 15 12 15H16C16.55 15 17 15.45 17 16C17 16.55 16.55 17 16 17ZM9 11H7V13H9V11ZM7 15H9V17H7V15Z" fill="#444444"/>
</svg>
