<svg width="24" height="24" viewBox="0 0 24 24" fill="none" xmlns="http://www.w3.org/2000/svg">
<path fill-rule="evenodd" clip-rule="evenodd" d="M14.99 12C14.99 13.66 13.66 15 12 15C10.34 15 8.99998 13.66 8.99998 12V6C8.99998 4.34 10.34 3 12 3C13.66 3 15 4.34 15 6L14.99 12ZM10.8 5.89995C10.8 5.23995 11.34 4.69995 12 4.69995C12.66 4.69995 13.2 5.23995 13.2 5.89995L13.19 12.1C13.19 12.76 12.66 13.3 12 13.3C11.34 13.3 10.8 12.76 10.8 12.1V5.89995Z" fill="#444444"/>
<path d="M17.25 12.71C17.31 12.3 17.66 12 18.08 12C18.6 12 19 12.46 18.93 12.97C18.47 15.94 15.96 18.29 13 18.72V21C13 21.55 12.55 22 12 22C11.45 22 11 21.55 11 21V18.72C8.02998 18.27 5.52998 15.94 5.06998 12.97C4.99998 12.46 5.39998 12 5.91998 12C6.32998 12 6.68998 12.3 6.74998 12.71C7.11998 15.33 9.46998 17.1 12 17.1C14.53 17.1 16.88 15.32 17.25 12.71Z" fill="#444444"/>
</svg>
