<svg width="24" height="24" viewBox="0 0 24 24" fill="none" xmlns="http://www.w3.org/2000/svg">
<path d="M19.8765 16.79L18.5865 15.5V10.5C18.5865 7.43 16.9465 4.86 14.0865 4.18V3.5C14.0865 2.67 13.4165 2 12.5865 2C11.7565 2 11.0865 2.67 11.0865 3.5V4.18C8.21648 4.86 6.58648 7.42 6.58648 10.5V15.5L5.29648 16.79C4.66648 17.42 5.10648 18.5 5.99648 18.5H19.1665C20.0665 18.5 20.5065 17.42 19.8765 16.79ZM16.5865 16.5H8.58648V10.5C8.58648 8.02 10.0965 6 12.5865 6C15.0765 6 16.5865 8.02 16.5865 10.5V16.5ZM12.5865 21.5C13.6865 21.5 14.5865 20.6 14.5865 19.5H10.5865C10.5865 20.6 11.4765 21.5 12.5865 21.5Z" fill="#444444"/>
</svg>
