<svg width="24" height="24" viewBox="0 0 24 24" fill="none" xmlns="http://www.w3.org/2000/svg">
<path d="M12.5865 21.5C13.6865 21.5 14.5865 20.6 14.5865 19.5H10.5865C10.5865 20.6 11.4765 21.5 12.5865 21.5ZM18.5865 15.5V10.5C18.5865 7.43 16.9465 4.86 14.0865 4.18V3.5C14.0865 2.67 13.4165 2 12.5865 2C11.7565 2 11.0865 2.67 11.0865 3.5V4.18C8.21649 4.86 6.58649 7.42 6.58649 10.5V15.5L5.29649 16.79C4.66649 17.42 5.10649 18.5 5.99649 18.5H19.1665C20.0565 18.5 20.5065 17.42 19.8765 16.79L18.5865 15.5Z" fill="#444444"/>
</svg>
