<svg width="24" height="24" viewBox="0 0 24 24" fill="none" xmlns="http://www.w3.org/2000/svg">
<path fill-rule="evenodd" clip-rule="evenodd" d="M16 8C16 10.21 14.21 12 12 12C9.79 12 8 10.21 8 8C8 5.79 9.79 4 12 4C14.21 4 16 5.79 16 8ZM12 6C13.1 6 14 6.9 14 8C14 9.1 13.1 10 12 10C10.9 10 10 9.1 10 8C10 6.9 10.9 6 12 6Z" fill="#444444"/>
<path fill-rule="evenodd" clip-rule="evenodd" d="M4 18C4 15.34 9.33 14 12 14C14.67 14 20 15.34 20 18V19C20 19.55 19.55 20 19 20H5C4.45 20 4 19.55 4 19V18ZM12 16C14.7 16 17.8 17.29 18 18H6C6.23 17.28 9.31 16 12 16Z" fill="#444444"/>
</svg>
