<svg width="24" height="24" viewBox="0 0 24 24" fill="none" xmlns="http://www.w3.org/2000/svg">
<path fill-rule="evenodd" clip-rule="evenodd" d="M15.7462 17.7475C15.3562 18.1375 14.7262 18.1375 14.3362 17.7475L13.1562 16.5675C11.8262 17.2775 10.1462 17.0975 9.02624 15.9775C7.50624 14.4575 7.67624 11.8975 9.52624 10.6075C10.6862 9.7975 12.3062 9.7975 13.4762 10.6075C15.0262 11.6875 15.3762 13.6475 14.5662 15.1575L15.7462 16.3375C16.1362 16.7275 16.1362 17.3575 15.7462 17.7475ZM11.5 15C12.3284 15 13 14.3284 13 13.5C13 12.6716 12.3284 12 11.5 12C10.6716 12 10 12.6716 10 13.5C10 14.3284 10.6716 15 11.5 15Z" fill="#444444"/>
<path fill-rule="evenodd" clip-rule="evenodd" d="M14.5 2.5C14.5 2.5 14 2 13.3 2C12.6 2 6 2 6 2C4.9 2 4 2.9 4 4V20C4 21.1 4.89 22 5.99 22H18C19.1 22 20 21.1 20 20C20 20 20 9.36187 20 8.72C20 8.07812 19.5 7.5 19.5 7.5L14.5 2.5ZM18 20H6V4H13V8.09091C13 8.59091 13.4091 9 13.9091 9H18V20Z" fill="#444444"/>
</svg>
