<svg width="24" height="24" viewBox="0 0 24 24" fill="none" xmlns="http://www.w3.org/2000/svg">
<path d="M18 12.5C17.45 12.5 17 12.05 17 11.5C17 10.95 17.45 10.5 18 10.5C18.55 10.5 19 10.95 19 11.5C19 12.05 18.55 12.5 18 12.5Z" fill="#444444"/>
<path fill-rule="evenodd" clip-rule="evenodd" d="M18 4V8H19C20.66 8 22 9.34 22 11V16C22 16.55 21.55 17 21 17H18V19C18 20.1 17.1 21 16 21H8C6.9 21 6 20.1 6 19V17H3C2.45 17 2 16.55 2 16V11C2 9.34 3.34 8 5 8H6V4C6 3.45 6.45 3 7 3H17C17.55 3 18 3.45 18 4ZM8 5H16V8H8V5ZM8 15H16V19H8V15ZM18 13V15H20V11C20 10.45 19.55 10 19 10H5C4.45 10 4 10.45 4 11V15H6V13H18Z" fill="#444444"/>
</svg>
