<svg width="24" height="24" viewBox="0 0 24 24" fill="none" xmlns="http://www.w3.org/2000/svg">
<path fill-rule="evenodd" clip-rule="evenodd" d="M18.2 11.89C18.66 12.02 19 12.4 19 12.87V13C19 13.55 18.55 14 18 14H12.98L13 21C13 21.55 12.55 22 12 22C11.45 22 11 21.55 11 21L10.98 14H6C5.45 14 5 13.55 5 13V12.87C5 12.4 5.34 12.02 5.8 11.89C7.07 11.54 8 10.38 8 9V4H7C6.45 4 6 3.55 6 3C6 2.45 6.45 2 7 2H17C17.55 2 18 2.45 18 3C18 3.55 17.55 4 17 4H16V9C16 10.38 16.93 11.54 18.2 11.89ZM14 4V9C14 10.12 14.37 11.16 15 12H9C9.65 11.14 10 10.1 10 9V4H14Z" fill="#444444"/>
</svg>
