<svg width="24" height="24" viewBox="0 0 24 24" fill="none" xmlns="http://www.w3.org/2000/svg">
<path d="M17 9H7C6.45 9 6 8.55 6 8C6 7.45 6.45 7 7 7H17C17.55 7 18 7.45 18 8C18 8.55 17.55 9 17 9Z" fill="#444444"/>
<path d="M7 13H17C17.55 13 18 12.55 18 12C18 11.45 17.55 11 17 11H7C6.45 11 6 11.45 6 12C6 12.55 6.45 13 7 13Z" fill="#444444"/>
<path d="M7 17H17C17.55 17 18 16.55 18 16C18 15.45 17.55 15 17 15H7C6.45 15 6 15.45 6 16C6 16.55 6.45 17 7 17Z" fill="#444444"/>
<path fill-rule="evenodd" clip-rule="evenodd" d="M20.65 2.36C20.7377 2.26256 20.8634 2.21259 20.99 2.2101V21.8C20.87 21.8 20.74 21.75 20.64 21.65L19.85 20.86C19.65 20.66 19.34 20.66 19.14 20.86L18.35 21.65C18.15 21.85 17.84 21.85 17.64 21.65L16.85 20.86C16.65 20.66 16.34 20.66 16.14 20.86L15.35 21.65C15.15 21.85 14.84 21.85 14.64 21.65L13.85 20.86C13.65 20.66 13.34 20.66 13.14 20.86L12.35 21.65C12.15 21.85 11.84 21.85 11.64 21.65L10.85 20.86C10.65 20.66 10.34 20.66 10.14 20.86L9.35 21.65C9.15 21.85 8.84 21.85 8.64 21.65L7.85 20.86C7.65 20.66 7.34 20.66 7.14 20.86L6.35 21.65C6.15 21.85 5.84 21.85 5.64 21.65L4.85 20.86C4.65 20.66 4.34 20.66 4.14 20.86L3.35 21.65C3.26 21.75 3.13 21.8 3 21.8V2.21C3.13 2.21 3.26 2.26 3.35 2.35L4.14 3.15C4.34 3.35 4.65 3.35 4.85 3.15L5.64 2.35C5.84 2.15 6.15 2.15 6.35 2.35L7.14 3.15C7.34 3.35 7.65 3.35 7.85 3.15L8.64 2.35C8.84 2.15 9.15 2.15 9.35 2.35L10.15 3.15C10.35 3.35 10.66 3.35 10.86 3.15L11.65 2.36C11.85 2.16 12.16 2.16 12.36 2.36L13.15 3.15C13.35 3.35 13.66 3.35 13.86 3.15L14.65 2.36C14.85 2.16 15.16 2.16 15.36 2.36L16.15 3.15C16.35 3.35 16.66 3.35 16.86 3.15L17.65 2.36C17.85 2.16 18.16 2.16 18.36 2.36L19.15 3.15C19.35 3.35 19.66 3.35 19.86 3.15L20.65 2.36ZM5 19.09H19V4.91H5V19.09Z" fill="#444444"/>
</svg>
