<svg width="24" height="24" viewBox="0 0 24 24" fill="none" xmlns="http://www.w3.org/2000/svg">
<path d="M16.1404 12.5C16.1404 13.5 16.0404 14.35 15.8404 15.05C15.6404 15.75 15.3604 16.32 15.0104 16.75C14.6504 17.19 14.2204 17.5 13.7104 17.7C13.2004 17.9 12.6404 18 12.0104 18C11.3904 18 10.8304 17.9 10.3204 17.7C9.81035 17.5 9.37035 17.19 9.01035 16.75C8.65035 16.31 8.36035 15.74 8.16035 15.05C7.96035 14.35 7.86035 13.5 7.86035 12.5V10.46C7.86035 9.46 7.96035 8.61 8.16035 7.91C8.36035 7.21 8.64035 6.65 9.00035 6.22C9.36035 5.79 9.80035 5.48 10.3104 5.29C10.8104 5.1 11.3804 5 12.0004 5C12.6304 5 13.1904 5.1 13.7004 5.29C14.2104 5.48 14.6504 5.79 15.0104 6.22C15.3704 6.65 15.6504 7.21 15.8504 7.91C16.0504 8.61 16.1504 9.45 16.1504 10.46V12.5H16.1404ZM14.0304 10.14C14.0304 9.5 13.9804 8.96 13.9004 8.52C13.8104 8.08 13.6804 7.73 13.5004 7.46C13.3304 7.19 13.1104 7 12.8604 6.88C12.6104 6.75 12.3204 6.69 12.0004 6.69C11.6804 6.69 11.3904 6.75 11.1404 6.87C10.8904 6.99 10.6704 7.18 10.5004 7.45C10.3304 7.72 10.1904 8.07 10.1004 8.51C10.0104 8.95 9.97035 9.49 9.97035 10.13V12.8C9.97035 13.44 10.0204 13.98 10.1104 14.42C10.2004 14.87 10.3404 15.23 10.5104 15.51C10.6804 15.79 10.9004 15.99 11.1504 16.12C11.4004 16.25 11.6904 16.31 12.0204 16.31C12.3504 16.31 12.6404 16.25 12.8904 16.12C13.1404 15.99 13.3504 15.79 13.5204 15.51C13.6904 15.23 13.8204 14.87 13.9104 14.42C14.0004 13.97 14.0404 13.43 14.0404 12.8V10.14H14.0304Z" fill="#444444"/>
</svg>
