<svg width="24" height="24" viewBox="0 0 24 24" fill="none" xmlns="http://www.w3.org/2000/svg">
<path d="M14 10H8C6.9 10 6 9.1 6 8C6 6.9 6.9 6 8 6H14C15.1 6 16 6.9 16 8C16 9.1 15.1 10 14 10Z" fill="#444444"/>
<path d="M12 18C10.34 18 9 16.66 9 15C9 13.34 10.34 12 12 12C13.66 12 15 13.34 15 15C15 16.66 13.66 18 12 18Z" fill="#444444"/>
<path fill-rule="evenodd" clip-rule="evenodd" d="M17.59 3.59C17.21 3.21 16.7 3 16.17 3H5C3.89 3 3 3.9 3 5V19C3 20.1 3.9 21 5 21H19C20.1 21 21 20.1 21 19V7.83C21 7.3 20.79 6.79 20.41 6.42L17.59 3.59ZM5 5V19H19V7.83L16.17 5H5Z" fill="#444444"/>
</svg>
