<svg width="24" height="24" viewBox="0 0 24 24" fill="none" xmlns="http://www.w3.org/2000/svg">
<path fill-rule="evenodd" clip-rule="evenodd" d="M16.17 3C16.7 3 17.21 3.21 17.59 3.59L20.41 6.42C20.79 6.79 21 7.3 21 7.83V19C21 20.1 20.1 21 19 21H5C3.9 21 3 20.1 3 19V5C3 3.9 3.89 3 5 3H16.17ZM14 10H8C6.9 10 6 9.1 6 8C6 6.9 6.9 6 8 6H14C15.1 6 16 6.9 16 8C16 9.1 15.1 10 14 10ZM12 18C10.34 18 9 16.66 9 15C9 13.34 10.34 12 12 12C13.66 12 15 13.34 15 15C15 16.66 13.66 18 12 18Z" fill="#444444"/>
</svg>
