<svg width="24" height="24" viewBox="0 0 24 24" fill="none" xmlns="http://www.w3.org/2000/svg">
<path d="M12.9577 3.52228C12.3607 3.19667 11.6392 3.19667 11.0423 3.52229L2.61014 8.12164C1.91513 8.50073 1.91531 9.49875 2.61044 9.8776L4.99999 11.1799V15.9929C4.99999 16.7247 5.39961 17.398 6.04194 17.7485L11.0419 20.4771C11.6391 20.8029 12.3609 20.8029 12.958 20.4771L17.958 17.7485C18.6004 17.398 19 16.7247 19 15.9929V11.1799L21 10.0899V15.9999C21 16.5522 21.4477 16.9999 22 16.9999C22.5523 16.9999 23 16.5522 23 15.9999V9.59353C23 9.22759 22.8001 8.89087 22.4788 8.71564L12.9577 3.52228ZM18.82 8.9999L12 12.7199L5.17999 8.9999L12 5.2799L18.82 8.9999ZM17 15.9899L12 18.7199L6.99999 15.9899V12.2699L11.0415 14.4766C11.6389 14.8027 12.3611 14.8027 12.9584 14.4766L17 12.2699V15.9899Z" fill="#444444"/>
</svg>
