<svg width="24" height="24" viewBox="0 0 24 24" fill="none" xmlns="http://www.w3.org/2000/svg">
<path fill-rule="evenodd" clip-rule="evenodd" d="M20.85 12.92L3.4 20.4C2.74 20.69 2.01 20.2 2.01 19.49L2 14.88C2 14.38 2.37 13.95 2.87 13.88L17 12L2.87 10.11C2.37 10.05 2 9.62002 2 9.12002L2.01 4.51002C2.01 3.80002 2.74 3.31002 3.4 3.60002L20.85 11.08C21.66 11.43 21.66 12.57 20.85 12.92ZM4.01 6.03001L11.52 9.25001L4 8.25001L4.01 6.03001ZM11.51 14.75L4 17.97V15.75L11.51 14.75Z" fill="#444444"/>
</svg>
