<svg width="24" height="24" viewBox="0 0 24 24" fill="none" xmlns="http://www.w3.org/2000/svg">
<path fill-rule="evenodd" clip-rule="evenodd" d="M8.00018 12C8.00018 9.79 9.79018 8 12.0002 8C14.2102 8 16.0002 9.79 16.0002 12C16.0002 14.21 14.2102 16 12.0002 16C9.79018 16 8.00018 14.21 8.00018 12ZM14.0002 12C14.0002 13.1046 13.1048 14 12.0002 14C10.8956 14 10.0002 13.1046 10.0002 12C10.0002 10.8954 10.8956 10 12.0002 10C13.1048 10 14.0002 10.8954 14.0002 12Z" fill="#444444"/>
<path fill-rule="evenodd" clip-rule="evenodd" d="M19.5002 12C19.5002 11.77 19.4902 11.55 19.4702 11.32L21.3302 9.91C21.7302 9.61 21.8402 9.05 21.5902 8.61L19.7202 5.38C19.4702 4.94 18.9302 4.76 18.4702 4.96L16.3202 5.87C15.9502 5.61 15.5602 5.38 15.1502 5.19L14.8602 2.88C14.8002 2.38 14.3702 2 13.8702 2H10.1402C9.63015 2 9.20015 2.38 9.14015 2.88L8.85015 5.19C8.44015 5.38 8.05015 5.61 7.68015 5.87L5.53015 4.96C5.07015 4.76 4.53015 4.94 4.28015 5.38L2.41015 8.62C2.16015 9.06 2.27015 9.61 2.67015 9.92L4.53015 11.33C4.51015 11.55 4.50015 11.77 4.50015 12C4.50015 12.23 4.51015 12.45 4.53015 12.68L2.67015 14.09C2.27015 14.39 2.16015 14.95 2.41015 15.39L4.28015 18.62C4.53015 19.06 5.07015 19.24 5.53015 19.04L7.68015 18.13C8.05015 18.39 8.44015 18.62 8.85015 18.81L9.14015 21.12C9.20015 21.62 9.63015 22 10.1302 22H13.8602C14.3602 22 14.7902 21.62 14.8502 21.12L15.1402 18.81C15.5502 18.62 15.9402 18.39 16.3102 18.13L18.4602 19.04C18.9202 19.24 19.4602 19.06 19.7102 18.62L21.5802 15.39C21.8302 14.95 21.7202 14.4 21.3202 14.09L19.4602 12.68C19.4902 12.45 19.5002 12.23 19.5002 12ZM17.5202 12C17.5202 11.79 17.5102 11.58 17.4702 11.27L17.3302 10.14L18.2202 9.44L19.2902 8.59L18.5902 7.38L17.3202 7.89L16.2602 8.32L15.3502 7.62C14.9502 7.32 14.5502 7.09 14.1202 6.91L13.0602 6.48L12.7102 4H11.3202L11.1202 5.35L10.9602 6.48L9.90017 6.91C9.49017 7.08 9.08017 7.32 8.65017 7.64L7.75017 8.32L6.71017 7.9L5.44017 7.39L4.74017 8.6L5.82017 9.44L6.71017 10.14L6.57017 11.27C6.54017 11.57 6.52017 11.8 6.52017 12C6.52017 12.2 6.54017 12.43 6.57017 12.74L6.71017 13.87L5.82017 14.57L4.74017 15.41L5.44017 16.62L6.71017 16.11L7.77017 15.68L8.68017 16.38C9.08017 16.68 9.48017 16.91 9.91017 17.09L10.9702 17.52L11.3202 20H12.7202L12.9202 18.65L13.0802 17.52L14.1402 17.09C14.5502 16.92 14.9602 16.68 15.3902 16.36L16.2902 15.68L17.3302 16.1L18.6002 16.61L19.3002 15.4L18.2202 14.56L17.3302 13.86L17.4702 12.73C17.5002 12.43 17.5202 12.21 17.5202 12Z" fill="#444444"/>
</svg>
