<svg width="24" height="24" viewBox="0 0 24 24" fill="none" xmlns="http://www.w3.org/2000/svg">
<path d="M13 18H11C10.45 18 10 17.55 10 17C10 16.45 10.45 16 11 16L13 16C13.55 16 14 16.45 14 17C14 17.55 13.55 18 13 18Z" fill="#444444"/>
<path d="M11 8C10.45 8 10 7.55 10 7C10 6.45 10.45 6 11 6L21 6C21.55 6 22 6.45 22 7C22 7.55 21.55 8 21 8L11 8Z" fill="#444444"/>
<path d="M17 13L11 13C10.45 13 10 12.55 10 12C10 11.45 10.45 11 11 11L17 11C17.55 11 18 11.45 18 12C18 12.55 17.55 13 17 13Z" fill="#444444"/>
<path d="M8.83887 15.0159L5.87217 17.855C5.67013 18.0483 5.32987 18.0483 5.12783 17.855L2.16113 15.0159C1.82086 14.7004 2.0548 14.1509 2.5333 14.1509H4.43667L4.43667 7.0176C4.43667 6.45792 4.91517 6 5.5 6C6.08484 6 6.56334 6.45792 6.56334 7.0176L6.56333 14.1509H8.4667C8.9452 14.1509 9.17914 14.7004 8.83887 15.0159Z" fill="#444444"/>
</svg>
