<svg width="24" height="24" viewBox="0 0 24 24" fill="none" xmlns="http://www.w3.org/2000/svg">
<path d="M2.16113 8.9841L5.12783 6.14501C5.32987 5.95166 5.67013 5.95166 5.87217 6.14501L8.83887 8.9841C9.17914 9.29955 8.9452 9.84906 8.4667 9.84906H6.56333V16.9824C6.56333 17.5421 6.08483 18 5.5 18C4.91517 18 4.43667 17.5421 4.43667 16.9824V9.84906H2.5333C2.0548 9.84906 1.82086 9.29955 2.16113 8.9841Z" fill="#444444"/>
<path d="M13 6H11C10.45 6 10 6.45 10 7C10 7.55 10.45 8 11 8H13C13.55 8 14 7.55 14 7C14 6.45 13.55 6 13 6Z" fill="#444444"/>
<path d="M11 16C10.45 16 10 16.45 10 17C10 17.55 10.45 18 11 18H21C21.55 18 22 17.55 22 17C22 16.45 21.55 16 21 16H11Z" fill="#444444"/>
<path d="M18 12C18 11.45 17.55 11 17 11H11C10.45 11 10 11.45 10 12C10 12.55 10.45 13 11 13H17C17.55 13 18 12.55 18 12Z" fill="#444444"/>
</svg>
