<svg width="24" height="24" viewBox="0 0 24 24" fill="none" xmlns="http://www.w3.org/2000/svg">
<path d="M15.1589 17.2302L12.0013 15.4034L8.84366 17.2302C8.47102 17.4468 8.01012 17.1266 8.10818 16.7217L8.94172 13.2753L6.16653 10.9682C5.84292 10.6951 6.01943 10.1772 6.45091 10.1396L10.1185 9.83824L11.5502 6.58956C11.7169 6.20348 12.2857 6.20348 12.4524 6.58956L13.8841 9.82883L17.5517 10.1302C17.9832 10.1678 18.1597 10.6857 17.8263 10.9588L15.0511 13.2658L15.8846 16.7217C15.9827 17.1266 15.5316 17.4468 15.1589 17.2302Z" fill="#444444"/>
<path fill-rule="evenodd" clip-rule="evenodd" d="M11.99 2C6.47 2 2 6.48 2 12C2 17.52 6.47 22 11.99 22C17.52 22 22 17.52 22 12C22 6.48 17.52 2 11.99 2ZM4 12C4 7.58196 7.57717 4 11.99 4C16.4167 4 20 7.58587 20 12C20 16.4141 16.4167 20 11.99 20C7.57717 20 4 16.418 4 12Z" fill="#444444"/>
</svg>
