<svg width="24" height="24" viewBox="0 0 24 24" fill="none" xmlns="http://www.w3.org/2000/svg">
<path fill-rule="evenodd" clip-rule="evenodd" d="M12 22C6.4875 22 2 17.5125 2 12C2 6.4875 6.4875 2 12 2C17.5125 2 22 6.4875 22 12C22 17.5125 17.5125 22 12 22ZM15.8825 8.2925L10.0025 14.1725L8.12251 12.2925C7.73251 11.9025 7.10251 11.9025 6.71251 12.2925C6.32251 12.6825 6.32251 13.3125 6.71251 13.7025L9.30251 16.2925C9.69251 16.6825 10.3225 16.6825 10.7125 16.2925L17.3025 9.7025C17.6925 9.3125 17.6925 8.6825 17.3025 8.2925C16.9125 7.9025 16.2725 7.9025 15.8825 8.2925Z" fill="#444444"/>
</svg>
