<svg width="24" height="24" viewBox="0 0 24 24" fill="none" xmlns="http://www.w3.org/2000/svg">
<path d="M11.99 4.00003V2.21003C11.99 1.76003 11.45 1.54003 11.14 1.86003L8.34001 4.65003C8.14001 4.85003 8.14001 5.16003 8.34001 5.36003L11.13 8.15003C11.45 8.46003 11.99 8.24003 11.99 7.79003V6.00003C15.3 6.00003 17.99 8.69003 17.99 12C17.99 12.79 17.84 13.56 17.55 14.25C17.4 14.61 17.51 15.02 17.78 15.29C18.29 15.8 19.15 15.62 19.42 14.95C19.79 14.04 19.99 13.04 19.99 12C19.99 7.58003 16.41 4.00003 11.99 4.00003ZM11.99 18C8.68001 18 5.99001 15.31 5.99001 12C5.99001 11.21 6.14001 10.44 6.43001 9.75003C6.58001 9.39003 6.47001 8.98003 6.20001 8.71003C5.69001 8.20003 4.83001 8.38003 4.56001 9.05003C4.19001 9.96003 3.99001 10.96 3.99001 12C3.99001 16.42 7.57001 20 11.99 20V21.79C11.99 22.24 12.53 22.46 12.84 22.14L15.63 19.35C15.83 19.15 15.83 18.84 15.63 18.64L12.84 15.85C12.53 15.54 11.99 15.76 11.99 16.21V18Z" fill="#444444"/>
</svg>
