<svg width="24" height="24" viewBox="0 0 24 24" fill="none" xmlns="http://www.w3.org/2000/svg">
<path fill-rule="evenodd" clip-rule="evenodd" d="M5.9999 3H14.9899C16.0899 3 16.9899 3.9 16.9899 5V14.99C16.9899 15.52 16.7799 16.03 16.4099 16.4L10.8799 21.94C10.5899 22.23 10.1999 22.38 9.8199 22.38C9.4399 22.38 9.0599 22.24 8.7699 21.95C8.4099 21.59 8.2599 21.08 8.3599 20.58L9.3099 16H3.6599C1.5099 16 0.0598996 13.8 0.9099 11.82L4.1699 4.21C4.4799 3.48 5.1999 3 5.9999 3ZM11.2699 16.41L10.6599 19.33L14.9899 14.99V5H5.9999L2.7499 12.6C2.5599 13.04 2.7199 13.38 2.8299 13.55C2.9399 13.72 3.1899 14 3.6599 14H11.7699L11.2699 16.41Z" fill="#444444"/>
<path d="M18.9999 5C18.9999 3.9 19.8999 3 20.9999 3C22.0999 3 22.9999 3.9 22.9999 5V13C22.9999 14.1 22.0999 15 20.9999 15C19.8999 15 18.9999 14.1 18.9999 13V5Z" fill="#444444"/>
</svg>
