<svg width="24" height="24" viewBox="0 0 24 24" fill="none" xmlns="http://www.w3.org/2000/svg">
<path fill-rule="evenodd" clip-rule="evenodd" d="M18 21H9.01001C7.91001 21 7.01001 20.1 7.01001 19L7.01001 9.01C7.01001 8.48 7.22001 7.97 7.59001 7.6L13.12 2.06C13.41 1.77 13.8 1.62 14.18 1.62C14.56 1.62 14.94 1.76 15.23 2.05C15.59 2.41 15.74 2.92 15.64 3.42L14.69 8L20.34 8C22.49 8 23.94 10.2 23.09 12.18L19.83 19.79C19.52 20.52 18.8 21 18 21ZM12.73 7.59L13.34 4.67L9.01001 9.01L9.01001 19H18L21.25 11.4C21.44 10.96 21.28 10.62 21.17 10.45C21.06 10.28 20.81 10 20.34 10L12.23 10L12.73 7.59Z" fill="#444444"/>
<path d="M5 19C5 20.1 4.1 21 3 21C1.9 21 1 20.1 1 19L1 11C1 9.9 1.9 9 3 9C4.1 9 5 9.9 5 11L5 19Z" fill="#444444"/>
</svg>
