<svg width="24" height="24" viewBox="0 0 24 24" fill="none" xmlns="http://www.w3.org/2000/svg">
<path d="M13.1201 2.06L7.5901 7.6C7.2201 7.97 7.0101 8.48 7.0101 9.01L7.0101 19C7.0101 20.1 7.9101 21 9.0101 21L18.0001 21C18.8001 21 19.5201 20.52 19.8301 19.79L23.0901 12.18C23.9401 10.2 22.4901 8 20.3401 8L14.6901 8L15.6401 3.42C15.7401 2.92 15.5901 2.41 15.2301 2.05C14.6401 1.47 13.7001 1.47 13.1201 2.06ZM3.0001 21C4.1001 21 5.0001 20.1 5.0001 19L5.0001 11C5.0001 9.9 4.1001 9 3.0001 9C1.9001 9 1.0001 9.9 1.0001 11L1.0001 19C1.0001 20.1 1.9001 21 3.0001 21Z" fill="#444444"/>
</svg>
