<svg width="24" height="24" viewBox="0 0 24 24" fill="none" xmlns="http://www.w3.org/2000/svg">
<path d="M9.53476 13.6647L10.388 13.6647L10.388 16.4441C10.388 16.7499 10.6295 17 10.9247 17H13.0713C13.3664 17 13.6079 16.7499 13.6079 16.4441V13.6647H14.4612C14.9388 13.6647 15.1803 13.0643 14.8422 12.7141L12.379 10.1626C12.1697 9.9458 11.8316 9.9458 11.6223 10.1626L9.1591 12.7141C8.82101 13.0643 9.05714 13.6647 9.53476 13.6647Z" fill="#444444"/>
<path fill-rule="evenodd" clip-rule="evenodd" d="M20.54 5.23L19.15 3.55C18.88 3.21 18.47 3 18 3H6C5.53 3 5.12 3.21 4.84 3.55L3.46 5.23C3.17 5.57 3 6.02 3 6.5V19C3 20.1 3.9 21 5 21H19C20.1 21 21 20.1 21 19V6.5C21 6.02 20.83 5.57 20.54 5.23ZM6.24 5H17.76L18.57 5.97H5.44L6.24 5ZM5 19V8H19V19H5Z" fill="#444444"/>
</svg>
