<svg width="24" height="24" viewBox="0 0 24 24" fill="none" xmlns="http://www.w3.org/2000/svg">
<path d="M16.2975 6.8825C16.6875 7.2725 16.6875 7.9025 16.2975 8.2925C15.9175 8.6725 15.2775 8.6825 14.8875 8.2925L13.0075 6.4125L13.0075 15.0825C13.0075 15.6325 12.5575 16.0825 12.0075 16.0825C11.4575 16.0825 11.0075 15.6325 11.0075 15.0825L11.0075 6.4125L9.11754 8.2925C8.72754 8.6825 8.09754 8.6825 7.70754 8.2925C7.31754 7.9025 7.31754 7.2725 7.70754 6.8825L11.2975 3.2925C11.6875 2.9025 12.3175 2.9025 12.7075 3.2925L16.2975 6.8825Z" fill="#444444"/>
<path d="M19 15C18.4477 15 18 15.4477 18 16V18H6V16C6 15.4477 5.55228 15 5 15C4.44772 15 4 15.4477 4 16V18C4 19.1 4.9 20 6 20H18C19.1 20 20 19.1 20 18V16C20 15.4477 19.5523 15 19 15Z" fill="#444444"/>
</svg>
