<svg width="24" height="24" viewBox="0 0 24 24" fill="none" xmlns="http://www.w3.org/2000/svg">
<path fill-rule="evenodd" clip-rule="evenodd" d="M2.27137 17.0075C1.50137 18.3375 2.46137 20.0075 4.00137 20.0075H19.0614C20.6014 20.0075 21.5614 18.3375 20.7914 17.0075L13.2614 3.9975C12.4914 2.6675 10.5714 2.6675 9.80137 3.9975L2.27137 17.0075ZM10.53 10.01V12.01C10.53 12.56 10.98 13.01 11.53 13.01C12.08 13.01 12.53 12.56 12.53 12.01V10.01C12.53 9.46001 12.08 9.01001 11.53 9.01001C10.98 9.01001 10.53 9.46001 10.53 10.01ZM10.53 17.01V15.01H12.53V17.01H10.53Z" fill="#444444"/>
</svg>
