<svg width="24" height="24" viewBox="0 0 24 24" fill="none" xmlns="http://www.w3.org/2000/svg">
<path fill-rule="evenodd" clip-rule="evenodd" d="M16.96 5.73C18.81 7.19 20 9.46 20 12C20 14.54 18.81 16.81 16.96 18.27L16.28 22.33C16.12 23.29 15.29 24 14.31 24H9.7C8.72 24 7.88 23.29 7.72 22.33L7.05 18.27C5.19 16.81 4 14.55 4 12C4 9.45 5.19 7.19 7.05 5.73L7.72 1.67C7.88 0.71 8.72 0 9.7 0H14.31C15.28 0 16.12 0.71 16.28 1.67L16.96 5.73ZM12 6C8.69 6 6 8.69 6 12C6 15.31 8.69 18 12 18C15.31 18 18 15.31 18 12C18 8.69 15.31 6 12 6ZM14.31 2L14.72 4.48C13.87 4.17 12.96 4 12 4C11.05 4 10.13 4.17 9.29004 4.47L9.70004 2H14.31ZM14.72 19.52L14.31 22H9.70004L9.29004 19.53C10.13 19.83 11.05 20 12 20C12.96 20 13.87 19.83 14.72 19.52Z" fill="#444444"/>
</svg>
