<svg width="24" height="24" viewBox="0 0 24 24" fill="none" xmlns="http://www.w3.org/2000/svg">
<path fill-rule="evenodd" clip-rule="evenodd" d="M13 20V14C13 13.45 13.45 13 14 13H20C20.55 13 21 13.45 21 14V20C21 20.55 20.55 21 20 21H14C13.45 21 13 20.55 13 20ZM19 19V15H15V19H19Z" fill="#444444"/>
<path fill-rule="evenodd" clip-rule="evenodd" d="M10 21H4C3.45 21 3 20.55 3 20V14C3 13.45 3.45 13 4 13H10C10.55 13 11 13.45 11 14V20C11 20.55 10.55 21 10 21ZM9 15V19H5V15H9Z" fill="#444444"/>
<path fill-rule="evenodd" clip-rule="evenodd" d="M3 10V4.00004C3 3.45004 3.45 3.00004 4 3.00004H10C10.55 3.00004 11 3.45004 11 4.00004V10C11 10.55 10.55 11 10 11H4C3.45 11 3 10.55 3 10ZM9 5.00005V9.00005H5V5.00005H9Z" fill="#444444"/>
<path fill-rule="evenodd" clip-rule="evenodd" d="M11.7 6.64004L15.95 2.40004C16.34 2.01004 16.98 2.01004 17.37 2.40004L21.61 6.64004C22 7.03004 22 7.66004 21.61 8.05004L17.36 12.3C16.97 12.69 16.34 12.69 15.95 12.3L11.7 8.05004C11.31 7.66004 11.31 7.03004 11.7 6.64004ZM16.66 4.52005L19.49 7.35005L16.66 10.18L13.83 7.35005L16.66 4.52005Z" fill="#444444"/>
</svg>
