<svg width="24" height="24" viewBox="0 0 24 24" fill="none" xmlns="http://www.w3.org/2000/svg">
<path fill-rule="evenodd" clip-rule="evenodd" d="M12 4C16.3 4 20.22 5.6 23.21 8.24C23.65 8.63 23.68 9.3 23.28 9.71L21.99 11H19.05C17.29 11 15.82 12.14 15.28 13.71C15.14 14.12 15.05 14.55 15.05 15V17.95L12.71 20.29C12.31 20.68 11.68 20.68 11.29 20.29L6.35001 15.34L0.730011 9.71C0.320011 9.3 0.350011 8.63 0.790011 8.24C3.78001 5.6 7.70001 4 12 4ZM22 15V16C22.55 16 23 16.45 23 17V20C23 20.55 22.55 21 22 21H18C17.45 21 17 20.55 17 20V17C17 16.45 17.45 16 18 16V15C18 13.9 18.9 13 20 13C21.1 13 22 13.9 22 15ZM19 16H21V15C21 14.45 20.55 14 20 14C19.45 14 19 14.45 19 15V16Z" fill="#444444"/>
</svg>
